<svg width="1440" height="1466" viewBox="0 0 1440 1466" fill="none" xmlns="http://www.w3.org/2000/svg">
<path fill-rule="evenodd" clip-rule="evenodd" d="M1465.01 74.4144C1465.87 77.6304 1471.73 82.7781 1478.03 85.855C1492.77 93.0449 1494.03 98.2141 1481.28 99.1438C1474.21 99.6623 1471.13 101.839 1470.96 106.426C1470.83 110.024 1469.44 118.412 1467.86 125.063C1465.25 136.05 1465.93 138.299 1475.27 149.727C1487.84 165.086 1488.41 175.843 1478.02 201.047C1468.19 224.876 1462.6 229.039 1458.92 215.283C1457.15 208.684 1450.67 201.655 1441.07 195.911C1427.32 187.681 1426.35 186.185 1429.9 178.789C1436.69 164.668 1435.3 157.272 1424.28 149.03C1416.47 143.187 1412.14 135.624 1407.84 120.304C1402.44 101.097 1401.26 99.5953 1392.47 100.671C1387.24 101.313 1378.08 99.7463 1372.12 97.1912C1363.97 93.701 1357.97 94.0287 1347.93 98.5149C1324.95 108.79 1321.78 93.322 1341.6 67.64C1348.82 58.2758 1355.99 53.4075 1365.99 51.0619C1373.78 49.2344 1384.06 46.8373 1388.84 45.7365C1401.14 42.8994 1401.52 40.3786 1391.76 26.3695C1386.57 18.9321 1379.23 13.5749 1373.41 12.9818C1364.69 12.094 1364.02 11.0913 1366.73 3.0207C1368.39 -1.91565 1371.03 -6.17754 1372.6 -6.45141C1374.18 -6.72901 1377.97 -7.62564 1381.04 -8.44752C1384.1 -9.26941 1387.31 -7.33928 1388.16 -4.15669C1389.06 -0.810513 1398.03 2.87413 1409.43 4.58147C1420.28 6.20566 1432.77 9.31481 1437.19 11.487C1448.25 16.9337 1451.91 33.1958 1443.98 41.6932L1437.55 48.5836L1450.5 58.5729C1457.61 64.0693 1464.14 71.1983 1465.01 74.4144ZM1368.73 -81.9941C1368.89 -72.0512 1369.33 -71.9027 1381.86 -77.5364C1397.03 -84.3629 1400.11 -79.9507 1392.52 -62.2418C1389.83 -55.9482 1387.99 -49.3861 1388.44 -47.658C1388.89 -45.9336 1389.2 -37.6635 1389.12 -29.2824C1388.99 -15.4131 1388.02 -13.9962 1378.26 -13.5539C1369.58 -13.1567 1366.59 -10.6508 1362.54 -0.352308C1358.28 10.4905 1355.21 12.8613 1341.65 15.7971C1327.94 18.771 1324.57 17.8631 1317.06 9.16621C1306.75 -2.76 1309.4 -14.218 1322.86 -15.9196C1328.54 -16.636 1330.66 -19.3047 1329.99 -24.875C1328.59 -36.5458 1313.86 -42.2307 1292.73 -39.2563C1272.16 -36.3585 1245.64 -45.2801 1242.75 -56.0734C1240.74 -63.5837 1246.21 -66.332 1251.24 -60.3403C1253.95 -57.1059 1254.84 -57.3645 1255.58 -61.5869C1256.09 -64.5096 1260.7 -70.7224 1265.83 -75.3949C1275.81 -84.4898 1276.77 -92.0865 1267.63 -89.6377C1264.56 -88.8158 1261.6 -89.8165 1261.05 -91.8614C1260.51 -93.9063 1263.48 -96.4969 1267.67 -97.6186C1272.23 -98.84 1276.62 -104.794 1278.63 -112.486C1280.47 -119.538 1283.19 -125.647 1284.66 -126.058C1286.14 -126.467 1288.54 -132.233 1289.99 -138.871C1292.04 -148.205 1291.36 -151.675 1287.02 -154.182C1282.69 -156.686 1282.25 -158.314 1285.11 -161.353C1287.29 -163.667 1286.74 -170.422 1283.78 -177.766C1276.57 -195.657 1279.68 -203.258 1293.3 -200.98C1299.2 -199.992 1304.71 -196.638 1305.54 -193.526C1306.52 -189.86 1310.66 -188.801 1317.31 -190.51L1327.56 -193.15L1317.89 -179.5C1310.79 -169.48 1309.2 -163.52 1311.94 -157.092C1315.19 -149.443 1317.27 -148.921 1328.36 -152.97C1335.35 -155.516 1343.72 -159.208 1346.96 -161.164C1351.12 -163.687 1354.28 -162.139 1357.78 -155.861C1360.49 -150.986 1365.04 -147.618 1367.88 -148.38C1375.22 -150.347 1375.05 -148.57 1365.59 -125.578C1356.93 -104.529 1356.56 -95.89 1364.21 -93.593C1366.61 -92.8751 1368.64 -87.6526 1368.73 -81.9941ZM1426.13 174.73C1419.51 184.084 1423.74 192.642 1439.18 201.12C1447.99 205.96 1454.2 212.554 1455.89 218.878C1459.83 233.549 1450.22 238.491 1434.52 229.869C1421.29 222.604 1409.86 225.553 1412.54 235.54C1414.58 243.15 1407.07 252.104 1399.33 251.288C1395.66 250.905 1391.9 247.847 1390.98 244.493C1390.06 241.138 1381.3 230.313 1371.54 220.432C1357.8 206.536 1349.01 201.367 1332.73 197.61C1321.15 194.934 1308.92 190.504 1305.55 187.765C1293.1 177.629 1288.18 173.051 1284.52 173.902C1281.49 174.607 1279.32 179.044 1274.45 187.139C1265.65 201.784 1264.27 202.76 1260.21 197.173C1257.51 193.461 1257.31 189.932 1259.71 188.349C1261.9 186.896 1262.56 181.444 1261.16 176.235C1257.7 163.3 1265.4 139.53 1274.82 134.09C1279.07 131.635 1289.44 127.756 1297.88 125.467C1306.44 123.142 1314.51 118.49 1316.14 114.936C1319.84 106.874 1362.81 98.4393 1373.53 103.662C1377.51 105.601 1384.4 106.213 1388.84 105.024C1393.28 103.834 1397.33 104.097 1397.84 105.602C1398.34 107.108 1401.44 116.882 1404.72 127.322C1408.46 139.231 1413.79 148.307 1419.03 151.696C1429.3 158.325 1431.86 166.639 1426.13 174.73ZM1331.46 22.1896C1351.97 15.3957 1375.84 16.8868 1384.84 25.5278C1398.21 38.3474 1397.55 39.8954 1377.64 42.4011C1349.78 45.9025 1346.21 49.4685 1315.62 104.344C1308.51 117.105 1305.09 119.487 1286.91 124.362C1275.44 127.441 1264.71 132.526 1262.75 135.821C1259.91 140.595 1255.55 139.345 1240.35 129.403C1225.27 119.536 1221.45 115.033 1221.32 106.982C1221.21 99.9549 1218.9 96.0367 1213.69 94.0179C1207.49 91.6153 1206.53 89.331 1208 80.5165C1210.96 62.8275 1202.22 52.309 1184.54 52.289C1164.85 52.2645 1155.64 46.3989 1160.09 36.7146C1161.86 32.8698 1166.47 29.9445 1170.47 30.1237C1174.45 30.3061 1178.44 27.803 1179.38 24.539C1180.31 21.288 1183.87 16.6559 1187.29 14.2418C1191.32 11.3915 1192.11 7.94787 1189.54 4.40855C1186.18 -0.210865 1186.67 -0.540219 1192.74 2.24934C1198.82 5.04607 1199.88 4.25709 1199.83 -3.07533C1199.81 -7.81056 1201.7 -12.198 1204.03 -12.8236C1206.37 -13.4502 1209.54 -18.0599 1211.06 -23.0677C1213.28 -30.3074 1216.39 -32.3822 1226.25 -33.182C1233.07 -33.7346 1240.72 -36.4263 1243.25 -39.1691C1246.57 -42.7646 1251.18 -42.3248 1259.8 -37.5921C1267.67 -33.27 1278.23 -31.9043 1290.8 -33.5778C1309.14 -36.0254 1324.86 -32.1818 1326.85 -24.7644C1327.37 -22.8162 1324.77 -21.5436 1321.06 -21.9321C1312.03 -22.8801 1303.28 -8.63711 1306.2 2.2603C1307.48 7.05651 1310.09 10.5616 1311.99 10.0525C1313.9 9.54241 1317 12.7478 1318.88 17.1726C1321.47 23.2447 1324.56 24.4738 1331.46 22.1896ZM1418.57 227.4L1430.06 233.56C1440.37 239.09 1441.14 240.509 1437.62 247.372C1435.06 252.372 1435.76 262.715 1439.65 277.223C1442.95 289.533 1444.14 301.945 1442.33 305.08C1437.8 312.929 1425.5 315.564 1413.6 311.229C1390.8 302.927 1388.81 323.537 1411.22 335.842C1426.61 344.295 1428.13 353.517 1414.72 357.11C1408.78 358.7 1405.16 363.004 1404.02 369.803C1402.56 378.54 1404.17 381.558 1414.75 389.843C1421.92 395.463 1428.35 404.346 1429.91 410.821C1432.29 420.648 1431.18 422.59 1421.02 426.392C1407.26 431.546 1392.63 428.942 1390.5 420.963C1389.48 417.175 1386.27 416.41 1380.92 418.687C1369.98 423.352 1372.26 442.38 1383.82 442.904C1388.18 443.102 1393.53 445.71 1395.7 448.7C1401.23 456.314 1396.36 463.206 1386.79 461.308C1376.53 459.267 1358.95 468.091 1357.31 476.101C1356.59 479.58 1355.43 487.515 1354.72 493.732C1352.87 509.827 1344.84 509.995 1326.47 494.326C1317.67 486.821 1308.88 481.106 1306.94 481.628C1302.11 482.92 1293.51 449.464 1294.66 433.881C1295.42 423.641 1293.84 419.534 1286.28 412.124C1278.54 404.541 1277.13 400.732 1277.94 389.679C1278.48 382.357 1276.12 365.921 1272.7 353.154C1268.06 335.828 1267.77 329.005 1271.54 326.263C1277.02 322.281 1294.04 328.668 1295.84 335.379C1297.72 342.406 1316.86 344.697 1326.92 339.1C1341.8 330.821 1368.43 283.868 1367.22 268.046C1366.28 255.683 1372.57 244.871 1382.21 242.289C1384.39 241.705 1386.77 243.476 1387.51 246.228C1388.25 248.979 1392.97 253.34 1398 255.921C1405.78 259.907 1407.86 259.615 1411.85 253.989C1414.43 250.344 1417 242.874 1417.56 237.383L1418.57 227.4ZM1328.73 202.452C1343.5 205.212 1354.48 210.331 1362.86 218.368C1376.07 231.045 1380.03 238.888 1374.02 240.498C1366.83 242.425 1359.44 260.459 1361.98 269.921C1364.77 280.327 1345.41 317.377 1329.68 331.755C1322.3 338.489 1319.23 339.363 1310.29 337.272C1304.44 335.906 1299.16 332.933 1298.56 330.665C1297.39 326.308 1280.93 317.245 1276.39 318.461C1274.92 318.856 1265.94 325.147 1256.43 332.444L1239.15 345.71L1212.06 341.894C1185.85 338.195 1179.17 334.871 1187.25 329.54C1191.66 326.624 1180.38 312.309 1174.84 313.793C1173.12 314.254 1170.34 306.477 1168.68 296.515C1165.98 280.342 1167.31 275.802 1181.09 254.205C1191.86 237.319 1196.28 225.926 1195.72 216.498C1194.98 204.207 1196.31 202.339 1210.53 195.803C1222.28 190.404 1228.05 189.58 1233.72 192.49C1237.88 194.624 1244.08 195.616 1247.5 194.701C1250.91 193.785 1254.4 195.598 1255.23 198.728C1258.11 209.451 1269.31 206.158 1277.84 192.089L1286.14 178.406L1295.75 185.776C1301.04 189.826 1305.72 194.322 1306.16 195.764C1306.59 197.205 1316.75 200.215 1328.73 202.452ZM1390.34 500.707C1385.33 493.81 1401.2 490.737 1409.32 497.033C1412.99 499.886 1416.19 502.726 1416.43 503.352C1417.79 506.94 1408.32 552.523 1405.61 555.409C1403.75 557.399 1404.8 564.281 1408.1 571.608C1411.25 578.613 1412.65 585.59 1411.22 587.113C1409.78 588.633 1410.39 592.998 1412.56 596.808C1419.95 609.787 1412.4 617.281 1388.28 620.906C1370.23 623.615 1366.33 625.331 1365.75 630.797C1365.37 634.433 1362.09 638.257 1358.47 639.3C1346.22 642.811 1329.95 674.708 1342.05 671.464C1348.7 669.685 1348.44 679.541 1341.51 692.676C1333.16 708.472 1338.04 724.464 1351.84 726.572C1356.98 727.358 1361.72 729.974 1362.36 732.387C1363.01 734.8 1365.83 736.981 1368.64 737.232C1379.16 738.176 1367.76 748.566 1343.56 760.092L1319.11 771.736L1323.5 783.273C1327.97 795.018 1323.76 800.255 1315.95 792.655C1313.58 790.35 1306.38 786.772 1299.94 784.707C1285.98 780.23 1273.84 788.699 1277.05 800.674C1278.7 806.824 1277.22 808.109 1268.16 808.396C1262.19 808.587 1254.01 806.521 1250 803.811C1243.99 799.754 1236.82 800.572 1209.4 808.438C1170.09 819.708 1156.18 818.51 1148.23 803.166C1145.22 797.362 1141.13 793.045 1139.15 793.576C1132.99 795.228 1116.6 811.586 1117.55 815.137C1119 820.565 1104.64 827.932 1098.97 824.66C1092.74 821.059 1086.19 822.229 1090.39 826.195C1092.04 827.739 1090 829.026 1085.87 829.053C1075.1 829.118 1073.89 838.119 1083.81 844.521C1088.97 847.855 1090.63 850.606 1088.08 851.592C1085.79 852.481 1082.3 853.864 1080.32 854.668C1075.18 856.759 1076.9 860.722 1086.77 869.544C1091.53 873.792 1094.93 877.995 1094.32 878.879C1093.71 879.764 1086.37 883.497 1078 887.174C1071.58 889.992 1067.59 891.78 1064.09 891.089C1058.23 889.93 1053.74 881.808 1041.5 859.902C1032.59 843.962 1031.7 840.642 1035.65 838.034C1038.21 836.343 1045.04 827.644 1050.82 818.702C1059.56 805.194 1062.3 803.125 1067.04 806.478C1070.17 808.696 1075.92 810.494 1079.82 810.469C1088.9 810.413 1102.88 790.126 1100.34 780.682C1098.06 772.157 1104.07 767.113 1122.31 762.224C1129.65 760.258 1137.67 755.591 1140.12 751.852C1143.5 746.72 1158.67 741.116 1202.05 728.978C1233.66 720.136 1264.82 712.626 1271.3 712.288C1278.78 711.902 1285.13 709.108 1288.66 704.661C1294.59 697.176 1297.94 674.238 1296.37 651.827C1295.55 640.254 1296.96 637.693 1305.48 635.255C1318.78 631.447 1332.28 613.926 1330.83 602.345C1330.2 597.255 1333.71 585.733 1338.65 576.74C1351.37 553.548 1350.38 540.915 1335.46 535.996C1325.14 532.596 1324.21 531.299 1327.73 525.204C1331.24 519.104 1333.38 519.226 1345.47 526.208C1353.03 530.571 1362.52 538.153 1366.56 543.059C1375.9 554.392 1382.13 550.355 1382.34 532.842C1382.43 525.319 1385.02 516.06 1388.11 512.264C1391.2 508.471 1392.2 503.27 1390.34 500.707ZM1356.08 504.537C1359.3 498.483 1364.04 495.564 1371.49 495.031C1383.28 494.183 1389.84 505.752 1381.14 512.066C1378.44 514.03 1376.69 521.691 1377.26 529.094C1378.36 543.468 1369.94 547.5 1367.83 533.613C1367.08 528.669 1364.5 525.978 1361.32 526.829C1358.43 527.605 1350.78 524.273 1344.34 519.422C1333.26 511.088 1332.25 511.041 1325.9 518.612C1317.17 529.017 1319.42 536.323 1332.7 540.699C1341.67 543.652 1343.22 545.842 1342.36 554.301C1341.79 559.845 1337.8 569.665 1333.48 576.126C1324.85 589.039 1315.82 590.802 1300.07 582.634C1294.81 579.91 1286.97 578.631 1282.64 579.791C1277.31 581.218 1273.67 579.302 1271.35 573.851C1269.46 569.424 1263.71 565.163 1258.57 564.376C1246.69 562.561 1245.65 559.09 1256.26 556.658C1261.38 555.481 1265.58 550.567 1267.4 543.607C1270.06 533.471 1269.28 531.304 1258.95 519.969C1252.7 513.109 1242.04 506.289 1235.27 504.815C1228.5 503.342 1221.56 501.01 1219.85 499.635C1218.14 498.257 1212.95 498.751 1208.32 500.733C1201.68 503.572 1200.5 506.662 1202.73 515.384C1205.23 525.146 1203.68 527.775 1189.38 537.946L1173.19 549.455L1159.31 540.801C1147.79 533.615 1145.77 530.689 1147.44 523.573C1148.83 517.608 1147.94 514.137 1144.51 512.155C1136.94 507.784 1159.01 450.277 1189.48 394.966L1215.77 347.248L1229.2 349.058C1237.79 350.215 1244.23 349.122 1247.09 346.021C1249.55 343.358 1254.09 340.472 1257.18 339.607C1261.91 338.29 1263.7 342.743 1268.43 367.545C1271.52 383.771 1273.45 399.055 1272.71 401.512C1271.97 403.97 1275.58 409.737 1280.73 414.327C1289.18 421.863 1290.1 424.683 1290.25 443.28C1290.49 472.499 1293.61 480.968 1306.11 486.321C1312.12 488.898 1322.06 495.732 1328.19 501.504C1342.27 514.764 1350.16 515.622 1356.08 504.537ZM1217.2 110.732C1217.79 120.004 1221.26 123.758 1238.47 133.795C1259.51 146.063 1260.75 148.276 1254.23 161.866C1252.17 166.173 1252.02 171.82 1253.91 174.418C1255.79 177.014 1256.14 181.203 1254.68 183.73C1250.85 190.367 1233.16 190.704 1231.41 184.168C1230.28 179.959 1227.62 179.914 1220.4 183.981C1215.16 186.931 1207.02 191.197 1202.3 193.459C1189.97 199.368 1189.22 200.764 1190.36 215.662C1191.12 225.638 1187.01 235.559 1174.36 254.246C1158.01 278.392 1157.57 279.934 1163.31 292.77C1167.93 303.104 1168.07 307.022 1163.93 310.028C1160.15 312.775 1158.01 311.79 1156.64 306.667C1155.39 301.989 1151.09 299.473 1144.54 299.58C1137.78 299.685 1134.59 297.738 1135.01 293.761C1135.36 290.472 1135.3 286.529 1134.89 284.997C1134.48 283.466 1140.1 274.943 1147.38 266.054C1161.3 249.059 1160.94 242.72 1145.23 228.082C1139.7 222.936 1138.7 216.277 1139.32 188.599L1140.06 155.303L1127.86 145.844C1119.21 139.132 1115.44 133.255 1114.9 125.625C1114.38 118.123 1112.61 115.278 1109.06 116.216C1106.26 116.954 1095.49 114.709 1085.11 111.225L1066.25 104.89L1075.28 91.9628C1085.33 77.5662 1087.45 76.3064 1094.7 80.487C1098.25 82.5365 1101.09 81.0013 1104.4 75.2593C1106.99 70.7903 1114.49 65.3317 1121.09 63.1265C1136.53 57.9676 1140.59 53.4336 1138.1 44.1274C1135.36 33.9067 1143.85 35.1018 1154.79 46.4731C1160.5 52.4142 1169.45 56.0984 1179.62 56.6966C1202.11 58.0213 1204.32 60.1353 1203.22 79.3335C1202.37 94.2822 1203.02 96.2432 1209.38 97.8561C1214.45 99.1423 1216.69 102.827 1217.2 110.732ZM1310.68 592.204C1313.02 591.576 1317.48 592.533 1320.59 594.33C1331.09 600.394 1329.85 610.363 1317.04 622.714C1312.68 626.909 1305.14 631.44 1300.28 632.779C1292.86 634.823 1291.48 638.241 1291.66 654.147C1291.78 664.563 1291.15 674.349 1290.26 675.9C1288.39 679.137 1260.8 671.889 1245.45 664.132C1238.78 660.761 1233.94 654.636 1231.89 646.98C1227.81 631.751 1219.38 627.909 1205.3 634.868C1192.73 641.087 1190.66 638.062 1192.3 615.817C1193.24 603.04 1192.48 601.886 1178.86 595.577C1164.48 588.918 1164.44 588.848 1170.08 580.112C1173.2 575.284 1174.78 567.715 1173.6 563.294C1171.86 556.814 1175.06 552.952 1190.08 543.385C1209.58 530.958 1214.65 522.18 1208.53 511.416C1204.11 503.666 1210.95 501.036 1220.77 506.708C1224.66 508.954 1230.65 510.05 1234.09 509.142C1237.53 508.236 1244.64 511.853 1249.91 517.181C1266.73 534.212 1266.61 551.734 1249.65 553.412C1239.65 554.403 1244.84 570.134 1255.16 570.072C1259.56 570.045 1265.22 573.739 1267.75 578.279C1270.88 583.896 1275 585.823 1280.66 584.308C1285.23 583.081 1292.9 584.613 1297.7 587.712C1302.49 590.811 1308.33 592.832 1310.68 592.204ZM1179.43 332.747C1177.78 339.799 1179.62 341.36 1192.33 343.715C1200.48 345.225 1207.33 347.113 1207.54 347.908C1207.75 348.708 1196.6 370.641 1182.75 396.652C1168.9 422.662 1152.06 458.87 1145.33 477.111C1133.23 509.902 1132.9 510.346 1115.36 516.268C1103.63 520.233 1096.16 520.886 1093.3 518.194C1090.92 515.959 1082.64 515.825 1074.9 517.9C1064.22 520.763 1060.82 520.233 1060.81 515.698C1060.8 512.413 1059 499.865 1056.81 487.815C1054.62 475.765 1054.06 464.603 1055.56 463.011C1060.32 457.952 1055.83 449.875 1045.01 444.032C1034.52 438.367 1021.27 441.473 996.024 455.523C988.176 459.889 987.853 459.414 982.141 435.031C978.925 421.303 977.581 407.84 979.154 405.115C980.727 402.39 979.734 395.205 976.951 389.148C973.938 382.599 973.654 379.579 976.246 381.698C981.947 386.359 999.722 387.944 1005.09 384.275C1007.51 382.612 1007.59 374.824 1005.28 365.869L1001.26 350.34L1012.37 358.321C1018.48 362.713 1026.36 365.532 1029.87 364.591C1033.39 363.648 1041.02 366.086 1046.84 370.007C1058.5 377.872 1067.15 377.429 1068.04 368.918C1068.36 365.88 1072.62 358.365 1077.51 352.221C1085.52 342.166 1087.82 341.17 1100.55 342.257C1114.64 343.459 1117.43 346.769 1121.12 366.658C1122.99 376.753 1130.84 379.612 1136.14 372.131C1138.86 368.295 1141.18 367.567 1143.55 369.8C1148.4 374.368 1158.47 370.786 1165.24 362.092C1170.86 354.867 1170.78 354.626 1160.45 348.223L1149.94 341.711L1156.57 329.148C1162.07 318.728 1164.66 316.927 1171.75 318.586C1181.6 320.888 1182.02 321.664 1179.43 332.747ZM1226.31 649.216C1230.52 662.149 1249.11 674.794 1270.24 679.11C1289.68 683.078 1294.68 688.037 1288.08 696.833C1285.87 699.794 1256.02 708.804 1212.66 719.6C1144.3 736.622 1140.76 737.884 1137.69 746.328C1133.46 757.942 1111.55 763.026 1108.87 753.021C1107.81 749.069 1109.84 745.641 1113.88 744.558C1120.18 742.871 1129.39 729.149 1132.63 716.646C1133.39 713.675 1128.32 706.932 1121.16 701.406C1100.66 685.574 1100.88 675.826 1122.46 646.454C1125.55 642.243 1133.26 628.034 1139.6 614.875L1151.12 590.947L1167.97 596.846C1184.69 602.702 1184.83 602.894 1187.26 622.141C1190 643.976 1195.65 648.557 1208.44 639.323C1217.05 633.106 1221.94 635.811 1226.31 649.216ZM1110.85 129.559C1110.96 136.531 1114.53 141.985 1123.25 148.547L1135.48 157.75L1134.13 190.265C1132.85 221.317 1133.19 223.189 1141.91 231.948C1154.47 244.577 1154.83 248.576 1144.6 261.432C1137.34 270.545 1132.68 272.927 1119.19 274.422C1091.84 277.45 1075.99 271.598 1081.15 260.377C1085.68 250.533 1077.65 244.97 1050.85 239.375C1026.21 234.234 1025.02 233.461 1024.5 222.214C1023.92 209.534 1015.77 200.03 993.219 185.75L980.641 177.787L987.922 169.237C991.922 164.535 1000.16 152.638 1006.21 142.795C1012.27 132.955 1019.1 124.341 1021.4 123.654C1023.69 122.971 1028.07 119.196 1031.12 115.274C1035.8 109.254 1037.68 108.716 1043.08 111.842C1046.61 113.877 1052.28 113.956 1055.68 112.02C1059.17 110.038 1070.05 111.625 1080.61 115.66C1090.91 119.597 1101.89 122.137 1105.02 121.3C1109.2 120.179 1110.74 122.361 1110.85 129.559ZM1138.35 306.287C1141.55 303.963 1145.94 302.594 1148.11 303.245C1154.54 305.176 1155.59 316.265 1150.48 328.29C1144.67 341.944 1145.25 345.061 1154.72 351.175C1161.3 355.427 1161.61 356.569 1157.66 362.147C1154.21 367.016 1151.81 367.714 1146.65 365.339C1143.02 363.67 1136.91 364.31 1133.08 366.763C1125.9 371.362 1121.55 366.434 1127.36 360.266C1129.42 358.086 1128.9 355.565 1125.98 353.429C1123.42 351.567 1117.91 341.842 1113.73 331.813C1106.46 314.405 1106.51 313.492 1114.77 311.609C1121.31 310.121 1123.6 306.474 1124.15 296.684C1125.27 276.493 1128.83 274.803 1130.77 293.538C1132.34 308.671 1133.16 310.056 1138.35 306.287ZM1085.91 276.106C1092.98 279.55 1102.86 281.276 1107.86 279.936C1114.87 278.057 1117.47 279.461 1119.25 286.086C1122.25 297.307 1116.66 312.431 1111.35 307.432C1104.93 301.384 1101.53 309.214 1104.99 322.116C1109.17 337.717 1106.72 341.677 1096.21 336.289C1088.35 332.257 1087.03 332.894 1075.88 346.046C1069.33 353.784 1063.69 362.727 1063.35 365.917C1062.47 374.359 1057.68 374.359 1050.93 365.924C1047.34 361.442 1040.99 359.138 1034.76 360.056C1029.06 360.9 1020.81 358.258 1016.14 354.089C1002.97 342.328 996.082 346.954 1000.76 364.421C1003.9 376.129 1003.36 379.652 998.226 380.981C986.632 383.976 980.665 379.597 978.247 366.306C976.126 354.672 974.77 353.522 964.208 354.407C953.262 355.319 952.024 354.117 944.833 335.549C935.695 311.96 917.579 290.809 902.159 285.732C895.035 283.385 890.109 278.639 888.48 272.557C886.187 264.002 887.075 263.003 897.37 262.532C903.744 262.242 909.394 260.055 910.132 257.59C910.976 254.777 914.985 253.528 921.154 254.154C928.696 254.923 931.884 253.12 935.524 246.02C938.093 241.004 939.543 233.462 938.744 229.261C937.052 220.374 943.133 208.372 951.066 204.947C954.102 203.636 958.373 200.184 960.554 197.272C969.734 185.013 979.371 183.607 993.715 192.432C1014.21 205.036 1021.33 213.864 1019.01 223.782C1015.88 237.177 1017.81 238.725 1042.93 242.94C1078.83 248.966 1079.15 249.138 1075.85 260.335C1073.32 268.914 1074.31 270.452 1085.91 276.106ZM1141.67 526.058C1142.12 535.951 1144.23 538.875 1153.86 543.007C1167.97 549.047 1172.7 563.428 1165.63 578.74C1161.4 587.903 1159.58 589.012 1153.42 586.182C1147.31 583.375 1145.88 584.062 1144.23 590.594C1143.15 594.849 1139 604.794 1135.02 612.692C1128.6 625.397 1125.37 627.738 1106.98 632.989L1086.18 638.925L1078.95 626.447C1068.16 607.801 1038.03 588.394 1027.67 593.41C1023.12 595.608 1017.1 595.771 1014.28 593.777C1008.29 589.529 990.514 553.801 986.359 537.64C983.028 524.689 980.322 477.455 982.495 470.218C983.305 467.514 992.452 461.84 1002.82 457.599C1013.19 453.362 1024.3 448.333 1027.51 446.424C1035.48 441.682 1054.69 452.825 1050.64 459.845C1048.99 462.697 1049.78 472.983 1052.38 482.702C1054.98 492.421 1056.33 505.1 1055.36 510.875C1052.81 526.09 1062.49 532.135 1077.71 524.837C1084.48 521.589 1090.65 520.721 1092.77 522.717C1094.74 524.578 1106.43 523.399 1118.74 520.1L1141.13 514.102L1141.67 526.058ZM1097.11 640.149C1103.91 637.09 1112.14 634.866 1115.39 635.209C1121.58 635.858 1125.19 641.904 1120.2 643.243C1118.6 643.669 1113.23 650.389 1108.26 658.174C1097.51 674.981 1100.19 691.784 1115.45 703.201C1120.93 707.307 1126.01 712.883 1126.74 715.593C1128.84 723.431 1117.22 738.972 1109.23 739.022C1103.64 739.056 1102.07 741.971 1102.51 751.499C1102.82 758.337 1100.97 765.465 1098.39 767.339C1095.81 769.21 1094.67 774.376 1095.86 778.815C1098.18 787.482 1089.73 802.832 1081.42 805.061C1078.63 805.809 1073.58 804.47 1070.22 802.085C1066.85 799.7 1062.7 798.121 1061 798.577C1056.09 799.892 1034.04 786.048 1032.62 780.761C1030.37 772.339 1025.66 772.349 1016.39 780.803C1001.92 793.988 996.885 793.401 987.651 777.453C982.999 769.418 973.175 756.131 965.819 747.925C958.459 739.715 951.495 728.104 950.341 722.117C948.301 711.546 947.675 711.351 928.421 715.342C909.11 719.341 904.171 716.999 907.948 705.634C908.838 702.949 913.017 698.573 917.235 695.901C921.453 693.232 924.415 689.059 923.82 686.629C922.425 680.933 949.959 649.009 958.157 646.812C962.648 645.609 963.545 641.937 961.348 633.735C958.816 624.288 959.586 622.388 965.827 622.672C971.511 622.931 973.768 619.947 975.008 610.521C976.437 599.674 978.545 597.515 990.944 594.193C1001.63 591.329 1006.81 592.041 1011.47 597.013C1015.85 601.682 1019.95 602.433 1025.24 599.537C1029.38 597.268 1035.88 596.714 1039.67 598.307C1051.34 603.207 1069.84 620.364 1077.48 633.358C1084.38 645.098 1085.35 645.438 1097.11 640.149ZM961.293 359.057C965.814 357.846 970.782 357.587 972.329 358.483C976.506 360.895 974.694 370.478 969.32 374.38C966.048 376.756 966.226 381.004 969.898 388.432C973.401 395.515 973.922 402.855 971.451 410.351C968.642 418.874 969.089 422.58 973.279 425.546C979.753 430.135 982.642 454.777 978.275 468.193C975.97 475.266 972.269 477.577 959.904 479.659C947.619 481.727 941.682 480.154 931.17 472.036C923.881 466.41 910.873 460.307 902.259 458.471C885.785 454.959 869.405 444.779 853.717 428.289C845.604 419.768 842.89 419.112 833.984 423.515C827.316 426.812 819.763 427.341 812.67 425.006C796.445 419.658 783.657 428.476 769.552 454.731C762.33 468.17 754.091 478.336 749.395 479.594C741.487 481.713 741.472 481.641 746.293 462.557C751.556 441.72 777.071 393.787 782.759 394.06C784.696 394.15 786.258 390.64 786.23 386.252C786.2 380.816 790.286 376.374 799.083 372.292C806.179 369 816.668 361.658 822.396 355.983C828.124 350.308 835.628 344.85 839.071 343.856C846.153 341.807 858.809 325.417 857.391 320.123C855.559 313.285 861.95 290.038 865.958 288.964C868.2 288.363 872.242 284.459 874.935 280.29C879.424 273.337 880.207 273.299 884.398 279.855C886.912 283.78 893.638 288.537 899.349 290.414C914.022 295.249 935.052 320.864 939.11 338.848C942.999 356.085 949.678 362.169 961.293 359.057ZM932.416 478.484C939.837 484.39 947.494 486.243 959.066 484.932L975.308 483.087L977.114 503.392C979.549 530.713 984.427 550.327 993.804 570.513L1001.63 587.345L986.929 591.283C974.816 594.529 971.92 597.078 970.468 605.772C968.765 615.955 968.323 616.193 957.738 612.71C951.71 610.722 946.141 606.727 945.365 603.831C944.589 600.935 941.354 598.291 938.18 597.958C935.003 597.626 929.061 592.997 924.976 587.672C917.39 577.786 906.183 576.577 908.685 585.916C909.447 588.761 905.806 593.462 900.597 596.36C890.051 602.227 877.968 595.817 857.288 573.38C843.545 558.468 841.847 552.01 846.245 531.349C848.185 522.23 849.025 511.982 848.113 508.577C847.2 505.171 848.249 499.849 850.44 496.752C852.634 493.653 854.091 485.871 853.676 479.459C853.25 472.842 855.301 467.156 858.409 466.323C861.428 465.514 864.65 461.878 865.572 458.239C866.989 452.656 871.512 453.073 894.628 460.91C909.685 466.017 926.688 473.926 932.416 478.484ZM1030.16 786.449C1031.2 790.327 1035.59 793.43 1040 793.406C1044.46 793.38 1048.79 796.485 1049.86 800.489C1051.81 807.743 1048.71 814.326 1033.62 835.046L1025.18 846.642L1036.52 862.315C1042.76 870.932 1047.19 879.158 1046.37 880.594C1045.53 882.029 1042.66 879.76 1039.97 875.551C1037.27 871.343 1033.06 866.509 1030.61 864.807C1028.16 863.107 1023.08 859.103 1019.33 855.913C1015.14 852.357 1006 850.956 995.669 852.289C981.984 854.059 977.712 852.821 972.828 845.674C965.235 834.574 964.752 816.396 971.991 814.457C975.021 813.645 976.84 810.531 976.038 807.535C975.236 804.542 977.563 799.292 981.212 795.867C986.467 790.94 989.601 790.547 996.281 793.973C1004.01 797.933 1005.54 797.55 1014.46 789.422C1026.82 778.155 1027.89 777.953 1030.16 786.449ZM1044.54 887.667C1051.41 896.239 1058.79 902.776 1060.95 902.197C1063.11 901.619 1065.7 904.213 1066.71 907.96C1068.21 913.571 1065.54 915.58 1051.68 919.295C1030.81 924.887 1027.82 929.748 1034.24 947.682C1039.16 961.42 1039.71 961.718 1055.04 958.786C1068.39 956.233 1071.55 957.139 1075.79 964.759C1082.37 976.588 1080.39 978.954 1053.61 991.266C1029.4 1002.4 1024.37 1002.78 1021.92 993.657C1020.63 988.823 1017.62 989.14 1003.51 995.593C994.239 999.836 980.824 1004.98 973.701 1007.02C961.416 1010.55 960.456 1010.03 955.061 996.944L949.373 983.15L942.621 993.184C938.908 998.706 932.88 1005.13 929.223 1007.47C923.137 1011.37 923.217 1012.14 930.155 1016.62C934.324 1019.31 938.476 1024.28 939.382 1027.66C941.407 1035.22 925.299 1044.96 917.869 1040.67C914.946 1038.98 904.525 1039.75 894.71 1042.38C884.894 1045.01 876.502 1045.92 876.061 1044.39C875.616 1042.86 873.094 1039.62 870.448 1037.18C866.542 1033.58 864.814 1033.91 861.238 1038.96C857.945 1043.62 858.325 1047.23 862.749 1053.36C867.87 1060.46 867.503 1062.39 859.992 1067.81C852.322 1073.34 851.99 1075.43 857.074 1086.03C862.626 1097.61 862.336 1098.33 848.356 1107.66L833.896 1117.32L839.692 1135.06C842.883 1144.81 847.922 1153.58 850.89 1154.54C857.901 1156.8 850.255 1166.12 842.091 1165.26C839.048 1164.94 833.008 1168.66 828.664 1173.52C821.093 1182 821.115 1182.59 829.173 1187.79C839.422 1194.41 837.603 1199.48 826.232 1196C819.605 1193.98 815.929 1195.31 807.893 1202.63C796.567 1212.95 742.406 1229.47 740.705 1223.12C739.2 1217.5 723.318 1223 716.785 1231.39C699.288 1253.87 679.75 1228.85 692.881 1200.79C697.387 1191.17 698.036 1182.85 695.127 1171.99C690.751 1155.66 695.849 1150.14 707.609 1158.47C716.668 1164.88 733.486 1157.56 729.509 1148.93C727.826 1145.28 727.133 1137.1 727.969 1130.75L729.49 1119.2L743.114 1122.99C756.449 1126.7 757.035 1126.54 771 1115.19C778.842 1108.8 788.423 1102.74 792.289 1101.7C796.327 1100.62 798.625 1097.22 797.686 1093.72C796.788 1090.37 798.288 1084.85 801.021 1081.45C807.955 1072.84 800.214 1063.72 788.61 1066.82C780.851 1068.9 778.726 1067.58 776.492 1059.24C774.809 1052.96 776.609 1045 781.251 1038.2C787.991 1028.33 791.806 1026.6 820.492 1020.35C851.408 1013.61 852.322 1013.14 854.023 1002.96C855.452 994.424 853.866 990.482 845.391 981.488C835.18 970.655 835.089 970.273 839.846 958.339C842.503 951.661 847.419 944.857 850.768 943.214C855.728 940.785 857.235 942.573 858.909 952.864C860.842 964.779 861.716 965.378 874.341 963.386C904.482 958.641 907.586 956.737 922.426 933.924C930.45 921.588 938.391 911.128 940.079 910.676C941.763 910.225 943.309 906.224 943.511 901.786C944.01 890.846 949.586 890.136 957.699 899.977C961.396 904.466 966.294 907.636 968.577 907.025C970.86 906.413 978.477 909.752 985.504 914.444C992.532 919.136 1000.94 922.262 1004.19 921.391C1012.01 919.297 1011.86 919.037 992.716 901.099C978.851 888.113 976.298 883.772 976.871 874.194C977.483 863.984 979.283 862.314 993.869 858.406C1007.34 854.796 1011.36 855.372 1016.98 861.719C1020.71 865.945 1025.64 870.006 1027.91 870.743C1030.19 871.48 1037.67 879.095 1044.54 887.667ZM943.441 611.523C944.465 615.346 947.926 617.674 951.254 616.782C955.176 615.731 956.994 617.412 956.548 621.668C956.173 625.235 956.727 631.363 957.778 635.285C959.073 640.119 957.097 643.111 951.636 644.574C947.207 645.761 941.572 649.833 939.117 653.623C936.661 657.413 929.72 668.239 923.697 677.68C917.671 687.121 910.65 695.406 908.096 696.09C905.546 696.773 903.05 702.822 902.556 709.529C901.592 722.603 894.566 727.08 885.301 720.521C882.157 718.291 875.256 716.537 869.966 716.62C862.966 716.73 858.246 713.137 852.615 703.409C843.205 687.165 834.155 682.481 822.79 687.981C816.575 690.989 813.226 690.376 810.586 685.744C808.514 682.099 803.608 680.253 799.169 681.443C787.126 684.67 788.226 677.872 802.682 659.708C810.442 649.958 815.163 639.99 814.098 635.601C813.099 631.485 811.705 625.582 811.002 622.483C810.295 619.385 807.422 611.189 804.615 604.27C798.456 589.092 800.3 570.287 808.454 565.07C811.729 562.973 813.837 559.12 813.138 556.51C812.437 553.897 814.399 547.832 817.497 543.037C820.691 538.093 823.628 536.174 824.281 538.609C824.913 540.97 827.941 542.231 831.008 541.409C834.916 540.362 837.641 543.856 840.112 553.076C843.994 567.565 870.861 598.976 883.633 603.958C891.86 607.165 904.803 601.394 910.148 592.135C915.205 583.376 915.634 583.238 919.405 589.129C921.583 592.53 927.466 597.413 932.483 599.986C937.497 602.56 942.43 607.75 943.441 611.523ZM956.399 744.372C960.654 748.173 968.714 758.016 974.316 766.25C984.322 780.959 984.375 781.395 977.432 791.233C973.547 796.737 970.897 803.222 971.543 805.635C972.191 808.051 970.195 809.762 967.107 809.437C957.144 808.393 962.195 846.889 972.83 853.029C976.823 855.334 977.109 857.979 973.949 863.453C970.89 868.751 968.966 869.646 967.007 866.68C965.514 864.422 956.836 860.933 947.722 858.924C938.605 856.916 927.855 851.432 923.832 846.74C919.81 842.051 911.115 836.447 904.51 834.296C885.844 828.211 880.708 822.578 875.06 802.003C869.659 782.338 871.668 777.58 887.105 773.443C890.808 772.451 894.144 768.736 894.514 765.194C895.265 758.047 885.604 745.951 880.287 747.376C878.358 747.893 877.284 742.964 877.802 735.959C878.453 727.13 880.239 724.336 884.101 726.11C887.064 727.472 902.095 725.744 917.505 722.268L945.52 715.949L947.091 726.706C947.955 732.623 952.146 740.574 956.399 744.372ZM973.196 885.627C974.673 890.842 981.34 899.022 988.011 903.81C1005.86 916.62 1004.59 921.049 986.216 910.049C977.498 904.834 951.122 889.785 927.598 876.606C891.41 856.331 885.114 851.423 886.677 844.733C887.694 840.379 889.957 836.438 891.701 835.97C897.233 834.488 914.081 843.542 921.395 851.923C925.271 856.364 935.055 861.35 943.137 863.002C961.062 866.667 969.662 873.137 973.196 885.627ZM835.189 430.078C843.356 426.041 846.442 426.748 853.605 434.309C858.334 439.302 862.807 445.364 863.542 447.777C864.968 452.46 859.566 459.873 853.461 461.612C851.424 462.19 849.457 468.575 849.089 475.798C848.721 483.022 846.953 491.473 845.157 494.585C843.363 497.691 842.49 502.464 843.22 505.189C843.951 507.915 843.681 516.575 842.62 524.438C841.26 534.546 838.826 538.537 834.316 538.064C830.81 537.696 827.315 535.062 826.552 532.214C825.789 529.366 823.781 527.406 822.093 527.858C817.81 529.006 808.568 547.904 807.852 556.994C807.47 561.771 804.886 564.292 800.802 563.864C797.252 563.493 787.794 564.943 779.781 567.09C768.65 570.073 764.822 569.528 763.55 564.781C760.088 551.861 748.303 548.702 729.616 555.686L711.997 562.268L706.359 547.145C702.784 537.551 702.099 530.072 704.493 526.693C706.566 523.766 706.574 518.727 704.505 515.496C701.4 510.645 703.856 508.329 718.619 502.198C728.452 498.117 737.063 492.88 737.758 490.566C738.453 488.252 743.982 485.029 750.038 483.407C758.418 481.161 764.111 474.862 773.808 457.113C787.464 432.11 800.078 424.638 816.998 431.521C822.002 433.556 829.33 432.975 835.189 430.078ZM878.702 859.378C885.309 857.608 922.664 877.139 934.139 888.358C940.863 894.937 941.104 897.012 936.146 905.605C931.047 914.431 918.774 915.145 905.996 907.36C900.466 903.988 892.307 903.552 882.748 906.113C869.587 909.64 867.762 909.089 865.574 900.924C863.97 894.938 857.678 889.407 847.331 884.891C838.643 881.098 831.223 876.83 830.843 875.41C830.461 873.986 834.165 869.395 839.067 865.204C849.917 855.937 848.733 841.211 836.005 827.247C827.533 817.949 827.433 817.326 834.137 815.53C842.822 813.203 856.098 829.316 857.128 843.437C857.968 854.931 867.901 862.272 878.702 859.378ZM904.21 911.967C907.64 915.622 912.897 917.959 915.89 917.157C924.036 914.975 923.642 919.292 914.138 936.364C905.452 951.969 899.104 955.523 877.398 956.92C867.457 957.563 865.126 956.02 863.471 947.701C860.537 932.945 843.227 936.173 836.103 952.802C829.922 967.226 831.798 976.446 842.931 986.391C854.084 996.353 851.364 1012.44 839.011 1009.55C834.602 1008.52 829.013 1009.12 826.584 1010.88C823.419 1013.19 821.139 1010.22 818.501 1000.38C815.173 987.955 813.573 986.67 801.516 986.736C791.573 986.791 786.374 988.865 780.946 994.946C770.509 1006.63 769.21 1006.07 767.607 989.124C766.46 977.006 763.615 971.504 753.595 961.995C746.68 955.432 738.278 947.215 734.925 943.729C730.443 939.077 725.289 938.461 715.497 941.42C698.745 946.478 696.003 939.574 707.96 922.451C712.711 915.643 715.966 907.713 715.193 904.828C714.19 901.084 718.609 898.29 730.637 895.067C752.711 889.152 771.643 874.743 766.553 867.731C763.782 863.918 765.167 861.905 771.774 860.135C781.902 857.421 793.735 841.025 791.523 832.771C789.866 826.584 806.301 820.67 811.513 825.577C813.325 827.284 818.097 827.798 822.116 826.721C826.541 825.536 831.862 828.143 835.606 833.328C844.392 845.503 846.505 856.051 840.478 857.665C837.637 858.427 832.451 862.984 828.957 867.794L822.603 876.542L841.88 887.93C852.485 894.194 862.06 902.682 863.162 906.794C865.503 915.532 876.975 917.001 889.297 910.148C895.91 906.468 899.461 906.899 904.21 911.967ZM756.924 565.245C764.049 575.167 769.715 575.936 787.706 569.422C797.169 565.994 799.329 570.456 794.828 584.118C792.404 591.475 793.418 597.148 799.046 607.755C803.119 615.43 806.345 624.719 806.216 628.4C806.078 632.318 795.638 642.344 781.002 652.606C761.85 666.035 752.83 675.652 742.329 693.836C732.602 710.688 729.788 719.352 732.612 723.768C735.608 728.448 733.754 732.4 725.086 739.804C715.311 748.149 712.018 749.259 703.172 747.194C697.45 745.854 690.166 746.646 686.994 748.95C678.602 755.048 653.793 741.042 657.748 732.439C661.852 723.513 653.056 719.418 636.404 722.501C617.122 726.074 615.11 724.648 609.411 703.382C605.283 687.974 605.615 681.88 611.125 671.84C617.933 659.444 617.922 659.355 607.707 647.392C599.436 637.701 596.12 636.242 590.532 639.824C565.81 655.677 547.954 646.012 562.398 624.593C566.32 618.78 568.536 610.32 567.325 605.799C565.759 599.958 567.848 596.063 574.537 592.338C579.718 589.455 590.168 581.981 597.76 575.722C605.356 569.463 616.151 563.115 621.758 561.613C627.361 560.112 634.652 554.516 637.963 549.174C645.224 537.457 686.294 515.645 694.46 519.172C697.813 520.62 699.477 524.287 698.681 528.469C697.564 534.324 700.84 548.293 706.72 562.757C707.525 564.733 717.528 563.846 728.954 560.785C748.618 555.516 750.109 555.754 756.924 565.245ZM746.765 695.488C758.733 675.373 768.302 666.677 807.658 640.164C810.443 638.29 806.599 644.851 799.117 654.75C785.666 672.544 781.574 683.818 786.791 688.728C788.268 690.122 792.375 689.611 795.913 687.599C800.4 685.042 803.638 686.195 806.598 691.399C809.662 696.779 808.263 703.916 801.58 716.972C796.486 726.932 790.158 735.661 787.525 736.367C784.889 737.073 782.372 745.303 781.929 754.655C781.214 769.802 779.612 772.419 767.25 778.616C750.721 786.903 742.462 798.361 745.296 809.07C746.432 813.356 745.381 822.775 742.961 829.998C737.334 846.801 740.623 859.077 751.429 861.601C774.313 866.95 756.331 883.939 721.872 889.526C703.701 892.474 700.888 891.626 683.234 877.882C660.339 860.059 655.162 847.547 669.134 843.803C679.455 841.038 692.851 821.449 690.477 812.589C688.675 805.863 671.85 799.241 662.756 801.678C652.769 804.354 651.978 793.117 661.771 787.668C667.357 784.557 670.744 778.206 671.492 769.426C672.498 757.668 673.672 756.266 680.724 758.389C687.02 760.289 689.199 759.529 690.588 754.957C692.071 750.081 694.09 749.512 702.52 751.6C714.671 754.609 719.998 752.301 733.332 738.248C741.044 730.116 742.279 726.398 738.545 722.561C734.831 718.75 736.818 712.204 746.765 695.488ZM775.689 1019.27C775.402 1001.14 788.504 990.33 809.186 991.639C811.971 991.817 815.109 995.153 816.155 999.057C818.871 1009.19 813.2 1015.07 793.294 1022.75C776.036 1029.42 775.851 1029.38 775.689 1019.27ZM772.268 1060.95C773.756 1070.77 775.585 1072.1 787.962 1072.3C797.356 1072.46 799.964 1073.61 795.871 1075.79C792.127 1077.79 790.705 1082.54 792.188 1088.07C793.927 1094.57 792.557 1097.65 787.296 1099.06C783.277 1100.13 774.86 1105.39 768.591 1110.75C757.561 1120.16 756.526 1120.34 736.26 1116.42C724.743 1114.19 714.752 1110.5 714.055 1108.21C713.356 1105.93 709.72 1102.65 705.97 1100.92C702.22 1099.2 697.932 1093.23 696.441 1087.67C694.949 1082.1 689.797 1075.53 684.988 1073.06C680.013 1070.51 676.234 1065.41 676.206 1061.2C676.182 1057.14 670.997 1049.7 664.68 1044.67C655.441 1037.31 652.397 1036.66 649.09 1041.33C645.809 1045.97 643.129 1045.69 635.802 1039.97C627.362 1033.38 625.96 1033.43 618.393 1040.53C613.868 1044.77 610.536 1049.63 610.991 1051.33C612.342 1056.37 602.044 1057.5 595.694 1053C592.462 1050.71 585.198 1049.52 579.554 1050.35C565.936 1052.37 566.187 1046.3 580.1 1037.29C594.856 1027.75 594.061 1013.16 578.702 1011.6C571.991 1010.91 565.156 1012.71 559.829 1016.55C553.02 1021.46 551.179 1021.44 549.841 1016.45C547.798 1008.83 533.942 999.575 527.25 1001.37C521.502 1002.91 517.892 993.571 522.39 988.795C524.043 987.037 530.689 986.735 537.154 988.123C549.311 990.739 593.396 985.92 605.986 980.598C617.073 975.918 619.982 969.42 615.313 959.772C612.606 954.177 607.572 950.991 601.589 951.088C594.018 951.208 591.486 948.794 588.843 938.93C587.03 932.164 583.847 924.286 581.77 921.427C578.507 916.938 582.271 915.204 609.258 908.754C638.425 901.783 640.456 900.741 639.549 893.221C639.015 888.79 635.415 883.709 631.543 881.929C620.68 876.934 621.215 870.961 633.24 862.953C639.287 858.93 646.823 853.591 649.986 851.09C654.612 847.431 656.239 848.402 658.288 856.046C661.124 866.631 688.659 892.268 701.362 896.145C713.215 899.767 713.249 905.604 701.506 922.068C687.636 941.513 691.886 951.277 711.881 945.919C722.407 943.099 727.819 943.769 732.226 948.438C735.526 951.937 742.292 958.417 747.261 962.835C757.876 972.277 777.735 1034.28 773.258 1044.02C771.788 1047.22 771.343 1054.83 772.268 1060.95ZM665.424 808.319C670.725 807.656 677.572 808.252 680.638 809.642C692.056 814.82 677.73 840.237 664.198 838.813C660.808 838.459 648.949 844.78 637.845 852.864C616.234 868.593 614.031 877.134 629.074 886.847C642.399 895.454 636.15 901.237 608.484 905.913C570.891 912.264 561.805 912.383 560.239 906.538C559.46 903.631 560.497 900.807 562.541 900.259C569.405 898.42 577.169 880.491 574.851 871.84C573.541 866.95 565.601 859.403 556.346 854.247C547.428 849.285 535.925 840.277 530.784 834.234C523.545 825.722 519.951 824.19 514.862 827.446C506.861 832.563 503.662 824.343 508.106 810.101C509.76 804.804 510.707 794.301 510.213 786.763C509.72 779.224 510.751 768.467 512.508 762.86C514.32 757.071 513.743 749.148 511.175 744.532C505.493 734.315 510.819 728.166 521.013 733.181C531.79 738.482 551.943 736.924 581.388 728.508C602.031 722.61 608.175 722.323 616.071 726.881C621.351 729.93 629.249 731.149 633.623 729.598C649.051 724.118 651.612 724.663 651.216 733.328C650.974 738.629 653.844 743.627 659.067 747.001C671.224 754.849 670.416 773.01 657.351 785.628C647.899 794.76 653.267 809.839 665.424 808.319ZM597.62 644.504C598.484 647.727 602.337 651.815 606.185 653.582C612.371 656.427 612.395 658.226 606.38 669.178C601.11 678.779 600.613 685.416 604.172 698.7L608.765 715.84L584.412 723.705C568.413 728.868 557.222 730.528 551.797 728.543C547.251 726.88 540.759 727.296 537.367 729.464C533.292 732.07 526.508 730.637 517.349 725.232C499.822 714.893 493.078 716.673 480.967 734.825C465.917 757.376 448.84 758.485 443.157 737.278C440.69 728.068 449.975 715.175 459.239 714.949C463.514 714.843 468.971 712.572 471.369 709.893C475.093 705.735 474.492 703.924 467.211 697.423C462.523 693.239 455.754 690.865 452.165 692.149C444.187 695.001 440.699 679.828 446.658 668.205C448.783 664.058 448.638 653.628 446.333 645.025C442.593 631.067 442.971 629.579 449.858 631.189C458.632 633.237 481.194 622.649 487.734 613.413C490.374 609.689 496.076 607.456 502.961 607.452C509.016 607.447 518.276 606.787 523.541 605.986C541.815 603.202 560.334 604.205 562.912 608.113C564.339 610.273 561.972 616 557.653 620.835C552.455 626.659 550.704 633.002 552.475 639.612C555.983 652.703 563.828 656.834 577.99 653.039C584.329 651.341 590.986 647.405 592.782 644.294C595.321 639.896 596.398 639.942 597.62 644.504ZM693.262 1090.68C696.229 1101.75 713.294 1118.83 719.708 1117.14C723.111 1116.25 724.406 1118.18 723.681 1123.08C723.085 1127.07 723.293 1135.98 724.138 1142.88C725.917 1157.37 721.724 1159.73 707.628 1152.17C693.084 1144.37 685.64 1151.46 690.264 1168.72C692.828 1178.29 691.793 1188.39 686.951 1201.06C683.075 1211.19 678.604 1219.83 677.013 1220.26C672.562 1221.45 666.909 1245.15 669.113 1253.37C670.451 1258.37 668.004 1262.26 661.429 1265.6C656.126 1268.29 648.207 1275.84 643.838 1282.38C637.682 1291.59 636.973 1296.21 640.691 1302.89C643.368 1307.71 644.007 1313.09 642.136 1315.08C640.29 1317.04 639.652 1321.89 640.716 1325.86C643.769 1337.25 637.642 1335.78 624.042 1321.87C613.719 1311.3 610.393 1304.27 605.231 1282.08C599.37 1256.9 597.629 1249.33 593.031 1246.63C591.027 1245.46 588.48 1245.21 584.813 1244.84C578.996 1244.25 574.37 1241.5 574.528 1238.73C574.964 1231.17 597.217 1206.72 608.963 1200.9C620.772 1195.05 630.153 1182.33 628.155 1174.88C627.22 1171.38 624.213 1171.24 618.504 1174.42C608.694 1179.88 601.524 1174.83 605.82 1165.49C607.479 1161.88 607.062 1156.49 604.897 1153.51C601.72 1149.14 597.904 1149.42 585.064 1155.01C570.033 1161.56 568.886 1161.44 564.089 1152.82C556.923 1139.94 560.419 1123.98 571.034 1121.14C582.039 1118.19 586.828 1109.87 583.873 1098.85C581.528 1090.09 582.752 1088.59 599.109 1080.17C604.173 1077.57 608.916 1070.88 609.909 1064.93C610.883 1059.11 615.511 1051.19 620.191 1047.33C627.742 1041.11 629.733 1041.12 637.836 1047.44C645.277 1053.25 647.76 1053.46 651.215 1048.58C654.676 1043.7 656.973 1043.94 663.663 1049.91C668.178 1053.95 671.889 1060.67 671.913 1064.87C671.94 1069.47 675.726 1074.43 681.481 1077.37C686.719 1080.06 692.022 1086.05 693.262 1090.68ZM527.003 836.766C531.572 841.726 542.856 849.948 552.076 855.029C561.297 860.114 569.547 866.917 570.414 870.151C572.66 878.535 565.817 895.396 559.474 897.096C556.522 897.887 554.558 900.207 555.106 902.251C555.653 904.296 554.429 906.418 552.384 906.966C550.339 907.514 547.869 904.987 546.896 901.355C545.921 897.719 541.69 891.863 537.49 888.338C531.148 883.02 527.929 882.978 518.493 888.08C512.241 891.457 502.832 898.27 497.581 903.212C484.31 915.714 471.559 918.066 456.783 910.748C446.214 905.511 444.335 902.87 445.192 894.44C445.759 888.908 447.699 882.809 449.51 880.885C454.006 876.114 451.368 867.963 443.912 863.589C436.154 859.041 427.806 831.769 432.579 826.561C438.542 820.066 446.251 819.478 445.612 825.571C445.28 828.721 450.443 840.153 457.085 850.973C472.667 876.366 484.365 878.871 494.979 859.086C498.905 851.77 505.848 841.725 510.405 836.762C518.568 827.876 518.819 827.877 527.003 836.766ZM483.827 739.522C487.752 733.274 493.471 727.49 496.538 726.668C503.97 724.677 509.18 748.003 505.962 768.846C504.65 777.347 504.095 786.461 504.727 789.101C505.359 791.742 504.514 801.408 502.846 810.578C501.18 819.752 500.945 828.318 502.326 829.618C506.739 833.775 486.461 865.621 479.064 866.152C471.002 866.731 457.282 846.609 451.047 825.063C447.273 812.02 446.234 811.178 439.208 815.488C434.97 818.082 429.134 821.391 426.234 822.838C419.411 826.24 431.105 862.537 440.835 868.155C446.502 871.426 446.739 873.606 442.515 883.465C439.806 889.79 438.349 897.795 439.275 901.253C440.201 904.707 437.86 912.539 434.073 918.647L427.187 929.757L405.734 918.505C385.369 907.831 383.426 907.602 367.572 914.034C351.736 920.457 350.313 920.293 340.174 910.875C328.411 899.945 313.256 899.363 308.707 909.663C307.113 913.275 302.278 918.133 297.961 920.465C291.611 923.892 289.195 922.921 285.309 915.395C282.672 910.28 279.372 904.27 277.985 902.039C276.594 899.806 281.561 891.8 289.021 884.243C303.692 869.381 306.44 860.615 299.725 850.116C295.359 843.293 287.55 845.234 265.469 858.63C258.836 862.651 257.384 861.92 255.098 853.387C253.636 847.929 246.922 837.925 240.174 831.153C228.668 819.604 228.113 818.143 231.213 807.481C235.255 793.579 239.944 791.999 245.66 802.622C251.63 813.718 260.245 810.238 262.984 795.625C264.934 785.22 265.996 784.214 270.339 788.673C277.871 796.41 298.061 789.98 298.001 779.866C297.967 774.101 301.15 771.005 309.562 768.623C315.944 766.817 327.2 761.175 334.576 756.091C349.892 745.523 355.633 746.918 360.015 762.273C362.852 772.209 363.469 772.31 388.005 766.884C410.125 761.989 413.134 760.401 413.448 753.451C413.646 749.118 415.626 743.005 417.849 739.867C423.291 732.184 438.768 735.768 441.323 745.304C446.538 764.764 469.972 761.578 483.827 739.522ZM452.708 698.563L458.753 698.813C465.111 699.073 467.741 703.374 464.728 708.592C463.743 710.299 460.119 710.397 456.674 708.814C451.789 706.568 448.753 708.637 442.886 718.211C437.277 727.365 432.641 730.675 424.67 731.221C415.759 731.827 413.404 734.164 410.501 745.263C407.484 756.803 404.963 759.128 391.532 762.75C369.601 768.663 363.154 767.31 362.986 756.763C362.765 742.883 351.669 739.811 336.855 749.531C324.041 757.937 312.884 756.735 310.184 746.659C309.488 744.064 304.903 742.001 299.989 742.074C292.412 742.188 290.391 739.717 286.646 725.737C283.867 715.368 283.902 705.994 286.74 700.435C289.22 695.579 289.781 686.71 287.987 680.731C286.197 674.747 283.033 661.942 280.96 652.272L277.194 634.692L297.907 631.373C311.379 629.214 321.31 625.529 326.322 620.827C332.138 615.375 335.569 614.304 340.287 616.475C343.727 618.056 347.362 617.923 348.37 616.182C349.373 614.439 357.735 617.821 366.948 623.693C381.201 632.777 385.255 633.599 394.136 629.207C401.265 625.683 410 625.311 421.716 628.034C436.599 631.498 439.312 633.696 442.258 644.69C444.143 651.724 443.473 662.444 440.749 668.8C434.966 682.301 438.103 697.966 446.664 698.314C448.326 698.382 450.517 698.473 452.708 698.563ZM364.889 920.886C381.682 912.083 391.784 913.273 411.016 926.319C425.972 936.462 426.87 938.046 424.182 949.55C421.047 962.966 410.748 962.156 381.506 946.197L353.864 931.105L342.141 942.798C324.333 960.556 316.663 960.962 303.552 944.841C291.369 929.858 292.257 925.038 308.003 920.703C312.928 919.347 315.74 916.115 314.859 912.829C311.936 901.916 330.501 906.183 342.305 919.139C350.257 927.863 351.405 927.954 364.889 920.886ZM296.111 746.815C300.726 746.742 307.312 749.863 310.747 753.757C314.18 757.647 317.307 761.196 317.692 761.639C318.082 762.08 312.725 763.966 305.787 765.825C295.529 768.574 292.303 767.629 288.484 760.766C282.433 749.887 271.897 749.562 238.281 759.231C219.516 764.629 209.454 769.402 206.187 774.461C198.157 786.894 193.003 785.238 188.601 768.808L184.486 753.449L171.723 759.192C156.661 765.966 150.142 773.997 152.515 782.853C153.46 786.378 151.652 793.254 148.501 798.135C145.346 803.017 144.199 808.983 145.948 811.391C147.778 813.91 146.538 816.465 143.032 817.405C139.679 818.303 134.589 822.672 131.719 827.115C123.54 839.779 115.929 832.434 109.046 805.228C105.116 789.7 104.456 778.045 107.058 770.147C113.204 751.489 106.447 746.362 86.0375 754.205C76.6123 757.831 64.5266 763.261 59.1862 766.278C52.4742 770.065 45.0108 770.706 35.0338 768.346C21.1938 765.073 20.3664 765.287 15.0658 773.493C9.71135 781.782 9.15248 781.749 -2.35313 772.434C-8.89576 767.142 -21.5208 761.607 -30.412 760.132C-45.5902 757.62 -46.1772 757.08 -40.015 751.3C-36.4036 747.913 -29.4915 744.085 -24.6506 742.788C-13.4 739.773 1.98484 726.98 0.627263 721.764C0.0533472 719.563 2.80753 712.561 6.74725 706.205C10.0073 700.944 11.7716 697.816 14.0384 697.396C17.2515 696.799 21.4737 701.642 32.395 713.555C37.4731 719.092 41.7312 718.952 64.0502 712.525C91.9572 704.481 112.976 694.777 111.821 690.468C110.474 685.441 136.537 671.631 155.439 667.352C179.841 661.829 212.041 648.571 216.56 642.192C218.515 639.432 228.904 635.15 239.645 632.675C265.767 626.656 272.66 632.615 279.463 667.107C282.499 682.48 282.865 695.448 280.406 700.248C277.73 705.464 278.282 714.704 282.04 727.541C286.86 744.026 288.981 746.929 296.111 746.815ZM264.026 758.852C277.209 758.38 281.41 760.199 286.764 768.699C290.377 774.433 293.077 780.54 292.766 782.265C291.631 788.571 277.651 789.089 271.195 783.064C262.184 774.659 259.795 776.064 258.739 790.386C257.715 804.261 251.029 808.456 247.993 797.127C244.619 784.534 233.527 786.745 226.956 801.318C219.701 817.4 220.684 822.229 233.348 832.684C238.788 837.176 245.647 845.479 248.584 851.132C253.788 861.14 256.106 865.957 259.399 866.755C262.537 867.515 266.559 864.626 274.804 859.101C287.748 850.433 291.32 849.292 294.917 852.68C301.068 858.472 297.37 870.549 286.372 880.573C274.05 891.8 272.052 892.061 265.063 883.334C259.876 876.853 256.855 876.706 240.336 882.129L221.521 888.306L210.727 866.153C204.792 853.967 197.066 837.595 193.555 829.769C188.247 817.934 185.542 815.778 177.479 816.962C170.389 818.001 166.365 821.988 162.506 831.801C157.403 844.772 157.56 845.658 167.35 858.74C178.846 874.102 178.423 878.264 165.669 875.281C159.829 873.918 155.821 869.552 153.93 862.491C149.321 845.292 144.317 840.97 132.636 844.1C125.873 845.912 121.359 845.042 120.479 841.755C119.568 838.357 121.862 836.507 127.034 836.476C131.411 836.451 134.504 834.61 133.907 832.383C133.311 830.159 137.872 825.438 144.047 821.891C151.503 817.61 154.394 813.556 152.657 809.809C151.22 806.707 151.501 802.627 153.279 800.74C155.057 798.853 157.372 790.924 158.421 783.123C159.474 775.318 162.792 768.276 165.796 767.471C168.8 766.666 173.633 764.283 176.535 762.175C180.495 759.301 182.444 760.703 184.342 767.786C185.997 773.961 184.518 778.733 180.068 781.579C173.04 786.076 172.875 792.078 179.611 798.239C187.073 805.058 195.354 801.03 204.833 785.962C215.549 768.936 235.319 759.881 264.026 758.852ZM182.945 785.399C185.403 783.613 188.679 782.886 190.23 783.782C195.523 786.834 195.716 795.318 190.526 796.709C183.499 798.592 177.371 789.447 182.945 785.399ZM195.184 846.751C200.769 855.4 207.342 867.319 209.785 873.24C216.139 888.64 215.856 891.39 207.539 894.989C200.666 897.967 192.114 889.563 181.068 868.98C180.04 867.063 175.693 860.788 171.41 855.034C164.739 846.066 164.171 842.907 167.457 832.937C171.327 821.188 184.359 815.871 184.8 825.859C184.923 828.699 189.599 838.102 195.184 846.751ZM35.1233 774.005C41.2902 775.887 52.5061 773.515 74.442 765.689C105.117 754.74 112.089 755.314 103.069 768.052C99.0326 773.748 101.15 808.137 106.284 820.278C107.981 824.29 106.503 827.149 102.162 828.229C92.865 830.548 80.0733 824.807 78.0967 817.43C76.7658 812.463 72.3655 812.43 54.3742 817.251C31.2149 823.457 25.4912 829.326 35.6098 836.497C38.3762 838.456 40.0736 839.563 40.1914 840.819C40.3684 842.708 36.9684 844.933 28.2509 850.898C18.6694 857.45 16.5695 857.658 11.7472 852.511C3.6298 843.855 -1.239 822.011 1.09178 804.714C2.21768 796.378 1.71514 787.603 -0.020566 785.215C-1.75727 782.823 -1.69784 780.472 0.112796 779.987C1.92343 779.501 4.4898 780.75 5.81768 782.762C7.4877 785.291 11.053 784.097 17.3658 778.894C24.6577 772.884 28.2356 771.901 35.1233 774.005ZM40.0259 827.265C40.8489 825.845 48.7674 822.738 57.6312 820.363C72.8637 816.282 73.8955 816.623 76.5784 826.636C78.9534 835.499 77.2936 838.793 66.416 846.829L53.4152 856.429L45.9771 843.14C41.8823 835.829 39.2077 828.687 40.0259 827.265Z" fill="url(#paint0_linear_88_2616)"/>
<path d="M877.791 753.185C869.129 753.234 867.175 750.582 870.827 743.734C872.122 741.307 873.294 735.553 873.435 730.949C873.63 724.584 871.18 722.16 863.199 720.824C856.423 719.691 851.9 716.045 850.421 710.524C847.498 699.615 833.868 688.085 826.294 690.114C823.089 690.973 815.118 702.075 808.581 714.785C802.044 727.495 794.615 738.452 792.072 739.133C789.529 739.815 787.085 748.021 786.64 757.365C785.936 772.254 784.118 775.332 771.991 782.212C753.716 792.579 750.074 797.054 752.508 806.141C753.624 810.305 752.457 819.289 749.915 826.103C742.233 846.703 745.714 855.856 761.223 855.841C777.115 855.827 790.448 843.631 787.323 831.967C785.743 826.071 787.882 823.94 798.147 821.189C805.185 819.303 812.423 819.157 814.235 820.863C819.372 825.699 824.7 822.741 822.907 816.049C821.62 811.245 823.834 809.843 833.733 809.203C840.577 808.764 846.857 808.795 847.691 809.273C848.521 809.755 853.013 820.092 857.667 832.242C862.733 845.454 868.324 854.571 871.576 854.912C878.878 855.677 888.426 833.134 882.6 828.881C880.167 827.102 874.738 817.415 870.539 807.35C861.867 786.57 865.068 775.363 880.888 771.124C892.41 768.037 889.834 753.11 877.791 753.185Z" fill="#C5E4DF"/>
<path d="M829 744C822.919 744 818 748.852 818 754.85C818 762.987 829 775 829 775C829 775 840 762.987 840 754.85C840 748.852 835.081 744 829 744ZM829 758.725C826.831 758.725 825.071 756.989 825.071 754.85C825.071 752.711 826.831 750.975 829 750.975C831.169 750.975 832.929 752.711 832.929 754.85C832.929 756.989 831.169 758.725 829 758.725Z" fill="#004767"/>
<defs>
<linearGradient id="paint0_linear_88_2616" x1="1572.49" y1="402.842" x2="-23.7448" y2="830.552" gradientUnits="userSpaceOnUse">
<stop stop-color="#EEEEEE" stop-opacity="0.3"/>
<stop offset="1" stop-color="#E7E7E7"/>
</linearGradient>
</defs>
</svg>
