<?xml version="1.0" encoding="utf-8"?><svg viewBox="0 0 70 70" xmlns="http://www.w3.org/2000/svg" xmlns:xlink="http://www.w3.org/1999/xlink"><style>:root>svg{display:none}:root>svg:target{display:block}</style><svg fill="none" viewBox="0 0 20 20" id="arrow-down" xmlns="http://www.w3.org/2000/svg"><path d="M3 7l7.5 7.5L18 7" stroke="#fff" stroke-width="2" stroke-linecap="round" stroke-linejoin="round"/></svg><svg fill="none" viewBox="0 0 15 18" id="arrow-right" xmlns="http://www.w3.org/2000/svg"><path d="M15 9L0 .34v17.32L15 9z" fill="#004767"/></svg><svg fill="none" viewBox="0 0 15 18" id="arrow-right-white" xmlns="http://www.w3.org/2000/svg"><path d="M15 9L0 .34v17.32L15 9z" fill="#fff"/></svg><svg viewBox="0 0 27 24" id="arrow-slider" xmlns="http://www.w3.org/2000/svg"><path d="M.94 10.94a1.5 1.5 0 000 2.12l9.545 9.547a1.5 1.5 0 102.122-2.122L4.12 12l8.486-8.485a1.5 1.5 0 10-2.122-2.122L.94 10.94zM27 10.5H2v3h25v-3z"/></svg><svg fill="none" viewBox="0 0 30 30" id="facebook" xmlns="http://www.w3.org/2000/svg"><path d="M30 15c0-8.28-6.72-15-15-15C6.72 0 0 6.72 0 15c0 7.26 5.16 13.305 12 14.7V19.5H9V15h3v-3.75A5.256 5.256 0 0117.25 6H21v4.5h-3c-.825 0-1.5.675-1.5 1.5v3H21v4.5h-4.5v10.425C24.075 29.175 30 22.785 30 15z" fill="#fff"/></svg><svg fill="none" viewBox="0 0 63 63" id="gear" xmlns="http://www.w3.org/2000/svg"><path d="M18.5 31.5c0 7.18 5.82 13 13 13s13-5.82 13-13-5.82-13-13-13-13 5.82-13 13zm21.527 0a8.527 8.527 0 11-17.054 0 8.527 8.527 0 0117.054 0z" fill="#fff"/><path fill-rule="evenodd" clip-rule="evenodd" d="M23.2 0h15.771v5.779l5.362 2.144 4.859-3.886 9.771 10.992-3.026 3.027 2.171 5.973H63V38.97h-5.098l-2.736 5.474 3.798 4.747-10.758 9.562-3.775-2.83-4.631 2.058V63H24.029v-4.95l-5.41-2.164-3.925 2.944L3.936 48.07l3.808-3.807-2.646-5.293H0v-14.56l5.576-.93 1.646-4.938-2.96-4.934 10.532-9.363 3.775 2.83L23.2 5.019V0zm5 5v3.268l-10.283 4.57-2.854-2.14-4.381 3.893 2.01 3.352-3.325 9.976L5 28.646v5.325h3.188l5.64 11.28-2.821 2.82 4.156 4.157 2.704-2.028 11.162 4.465V58H34.8v-3.267l10.283-4.57 2.854 2.14 4.157-3.695-2.831-3.538 5.55-11.099H58V29.03h-3.394L50.15 16.772l1.945-1.944-3.486-3.922-3.427 2.742-11.21-4.484V5H28.2z" fill="#fff"/></svg><svg fill="none" viewBox="0 0 30 29" id="instagram" xmlns="http://www.w3.org/2000/svg"><rect width="30" height="29" rx="8" fill="#fff"/><path d="M23 14a8 8 0 11-16 0 8 8 0 0116 0zm-13 0a5 5 0 1010 0 5 5 0 00-10 0z" fill="#004767"/><circle cx="24.5" cy="4.5" r="1.5" fill="#004767"/></svg><svg fill="none" viewBox="0 0 70 70" id="quality" xmlns="http://www.w3.org/2000/svg"><path d="M25.18 65.625l-5.54-9.43L8.798 53.91l1.167-10.743L2.917 35l7.049-8.118-1.167-10.743 10.84-2.285 5.542-9.479L35 8.799l9.819-4.424 5.59 9.48 10.792 2.284-1.167 10.743L67.084 35l-7.049 8.167 1.167 10.743-10.792 2.285-5.59 9.43L35 61.201l-9.82 4.424zm2.14-6.32L35 56.05l7.875 3.257 4.618-7.195 8.361-2.09-.826-8.507L60.764 35l-5.736-6.66.827-8.507-8.362-1.944-4.764-7.195L35 13.951l-7.875-3.257-4.618 7.195-8.36 1.944.825 8.507L9.236 35l5.736 6.514-.826 8.653 8.361 1.944 4.813 7.195zm4.57-14.388l16.527-16.43-3.549-3.404L31.89 37.965l-6.708-6.854-3.597 3.549 10.305 10.257z" fill="#fff"/></svg><svg fill="none" viewBox="0 0 70 70" id="schedule" xmlns="http://www.w3.org/2000/svg"><path d="M45.354 48.951l3.549-3.548-11.327-11.375V19.785h-4.861v16.187l12.639 12.98zM35 64.167c-4.003 0-7.778-.766-11.327-2.297-3.548-1.531-6.643-3.618-9.284-6.259-2.642-2.641-4.728-5.736-6.26-9.285C6.6 42.778 5.834 39.002 5.834 35c0-4.002.766-7.778 2.297-11.326 1.531-3.549 3.617-6.644 6.258-9.285 2.642-2.641 5.737-4.728 9.285-6.259C27.222 6.6 30.997 5.833 35 5.833c4.002 0 7.777.766 11.326 2.297 3.549 1.531 6.644 3.618 9.285 6.259 2.641 2.641 4.727 5.736 6.259 9.285 1.53 3.548 2.296 7.324 2.296 11.326 0 4.002-.765 7.778-2.296 11.326-1.532 3.549-3.618 6.644-6.26 9.285-2.64 2.641-5.735 4.728-9.284 6.259C42.777 63.4 39.002 64.167 35 64.167zm0-4.861c6.692 0 12.416-2.378 17.172-7.134 4.755-4.756 7.133-10.48 7.133-17.172s-2.378-12.416-7.133-17.172c-4.756-4.756-10.48-7.134-17.172-7.134s-12.416 2.378-17.172 7.134S10.694 28.308 10.694 35s2.378 12.416 7.134 17.172S28.308 59.306 35 59.306z" fill="#fff"/></svg><svg fill="none" viewBox="0 0 70 70" id="support" xmlns="http://www.w3.org/2000/svg"><path d="M34.856 52.208c.857 0 1.582-.296 2.173-.888.592-.593.888-1.318.888-2.176 0-.857-.297-1.582-.889-2.173-.592-.592-1.317-.888-2.175-.888-.858 0-1.583.297-2.174.889-.592.592-.887 1.317-.887 2.175 0 .858.296 1.583.888 2.174.593.592 1.318.887 2.176.887zm-2.481-10.937h4.57c0-1.588.226-2.836.68-3.743.454-.908 1.292-1.973 2.514-3.195 1.646-1.646 2.797-3.072 3.453-4.28a8.041 8.041 0 00.984-3.9c0-2.577-.842-4.63-2.527-6.162-1.686-1.53-3.955-2.296-6.807-2.296-2.572 0-4.758.615-6.559 1.847-1.8 1.231-3.097 2.932-3.891 5.104l4.18 1.701c.567-1.345 1.38-2.386 2.44-3.123 1.06-.737 2.297-1.106 3.71-1.106 1.474 0 2.657.377 3.548 1.13.891.754 1.337 1.78 1.337 3.08 0 .92-.267 1.834-.802 2.742-.535.907-1.434 1.952-2.698 3.135-1.734 1.604-2.856 3.026-3.366 4.266-.51 1.24-.766 2.84-.766 4.8zM13.611 61.25c-1.312 0-2.45-.482-3.415-1.446-.964-.964-1.446-2.103-1.446-3.415V13.61c0-1.312.482-2.45 1.446-3.415.964-.964 2.103-1.446 3.415-1.446H56.39c1.312 0 2.45.482 3.415 1.446.964.964 1.446 2.103 1.446 3.415V56.39c0 1.312-.482 2.45-1.446 3.415-.964.964-2.103 1.446-3.415 1.446H13.61zm0-4.861H56.39V13.61H13.61V56.39z" fill="#fff"/></svg></svg>