<?xml version="1.0" encoding="utf-8"?><svg viewBox="0 0 30 30" xmlns="http://www.w3.org/2000/svg" xmlns:xlink="http://www.w3.org/1999/xlink"><style>:root>svg{display:none}:root>svg:target{display:block}</style><svg viewBox="0 0 27 24" id="arrow-slider" xmlns="http://www.w3.org/2000/svg"><path d="M.94 10.94a1.5 1.5 0 000 2.12l9.545 9.547a1.5 1.5 0 102.122-2.122L4.12 12l8.486-8.485a1.5 1.5 0 10-2.122-2.122L.94 10.94zM27 10.5H2v3h25v-3z"/></svg><svg fill="none" viewBox="0 0 30 30" id="facebook" xmlns="http://www.w3.org/2000/svg"><path d="M30 15c0-8.28-6.72-15-15-15C6.72 0 0 6.72 0 15c0 7.26 5.16 13.305 12 14.7V19.5H9V15h3v-3.75A5.256 5.256 0 0117.25 6H21v4.5h-3c-.825 0-1.5.675-1.5 1.5v3H21v4.5h-4.5v10.425C24.075 29.175 30 22.785 30 15z" fill="#fff"/></svg><svg fill="none" viewBox="0 0 30 29" id="instagram" xmlns="http://www.w3.org/2000/svg"><rect width="30" height="29" rx="8" fill="#fff"/><path d="M23 14a8 8 0 11-16 0 8 8 0 0116 0zm-13 0a5 5 0 1010 0 5 5 0 00-10 0z" fill="#004767"/><circle cx="24.5" cy="4.5" r="1.5" fill="#004767"/></svg></svg>