<svg width="63" height="63" viewBox="0 0 63 63" fill="none" xmlns="http://www.w3.org/2000/svg">
<path d="M18.5 31.5C18.5 38.6797 24.3203 44.5 31.5 44.5C38.6797 44.5 44.5 38.6797 44.5 31.5C44.5 24.3203 38.6797 18.5 31.5 18.5C24.3203 18.5 18.5 24.3203 18.5 31.5ZM40.0268 31.5C40.0268 36.2092 36.2092 40.0268 31.5 40.0268C26.7908 40.0268 22.9732 36.2092 22.9732 31.5C22.9732 26.7908 26.7908 22.9732 31.5 22.9732C36.2092 22.9732 40.0268 26.7908 40.0268 31.5Z" fill="white"/>
<path fill-rule="evenodd" clip-rule="evenodd" d="M23.2 0H38.9714V5.77885L44.333 7.92347L49.1917 4.03654L58.9632 15.0295L55.9365 18.0562L58.1082 24.0286H63V38.9714H57.9022L55.1657 44.4445L58.9635 49.1917L48.2056 58.7542L44.4313 55.9235L39.8 57.9818V63H24.0286V58.0497L18.6189 55.8858L14.694 58.8295L3.93589 48.0714L7.74381 44.2635L5.09777 38.9714H0V24.4108L5.57571 23.4815L7.22182 18.5431L4.26116 13.6087L14.7944 4.2458L18.5687 7.07653L23.2 5.01817V0ZM28.2 5V8.26754L17.917 12.8378L15.0627 10.6971L10.6817 14.5913L12.6925 17.9426L9.36715 27.9185L5 28.6464V33.9714H8.18794L13.8276 45.2508L11.007 48.0714L15.1632 52.2276L17.8668 50.1999L29.0286 54.6646V58H34.8V54.7325L45.083 50.1622L47.9373 52.3029L52.0937 48.6083L49.2629 45.0698L54.8121 33.9714H58V29.0286H54.6061L50.1493 16.7723L52.094 14.8276L48.6083 10.9063L45.1813 13.648L33.9714 9.16401V5H28.2Z" fill="white"/>
</svg>
