<svg width="30" height="29" viewBox="0 0 30 29" fill="none" xmlns="http://www.w3.org/2000/svg">
<rect width="30" height="29" rx="8" fill="white"/>
<path d="M23 14C23 18.4183 19.4183 22 15 22C10.5817 22 7 18.4183 7 14C7 9.58172 10.5817 6 15 6C19.4183 6 23 9.58172 23 14ZM10.0001 14C10.0001 16.7614 12.2386 18.9999 15 18.9999C17.7614 18.9999 19.9999 16.7614 19.9999 14C19.9999 11.2386 17.7614 9.00006 15 9.00006C12.2386 9.00006 10.0001 11.2386 10.0001 14Z" fill="#004767"/>
<circle cx="24.5" cy="4.5" r="1.5" fill="#004767"/>
</svg>
