<svg width="70" height="70" viewBox="0 0 70 70" fill="none" xmlns="http://www.w3.org/2000/svg">
<path d="M25.1809 65.625L19.6392 56.1945L8.79896 53.9097L9.96563 43.1667L2.91699 35L9.96563 26.882L8.79896 16.1389L19.6392 13.8542L25.1809 4.375L35.0003 8.79863L44.8198 4.375L50.41 13.8542L61.2017 16.1389L60.035 26.882L67.0837 35L60.035 43.1667L61.2017 53.9097L50.41 56.1945L44.8198 65.625L35.0003 61.2014L25.1809 65.625ZM27.3198 59.3056L35.0003 56.0486L42.8753 59.3056L47.4934 52.1111L55.8545 50.0208L55.0281 41.5139L60.7643 35L55.0281 28.3403L55.8545 19.8333L47.4934 17.8889L42.7295 10.6944L35.0003 13.9514L27.1253 10.6944L22.5072 17.8889L14.1462 19.8333L14.9725 28.3403L9.23639 35L14.9725 41.5139L14.1462 50.1667L22.5072 52.1111L27.3198 59.3056ZM31.8892 44.9167L48.417 28.4861L44.8684 25.0833L31.8892 37.9653L25.1809 31.1111L21.5837 34.6597L31.8892 44.9167Z" fill="white"/>
</svg>
