<svg width="70" height="70" viewBox="0 0 70 70" fill="none" xmlns="http://www.w3.org/2000/svg">
<path d="M45.3538 48.9513L48.9025 45.4028L37.576 34.0278V19.7847H32.715V35.9722L45.3538 48.9513ZM34.9997 64.1666C30.9974 64.1666 27.2219 63.401 23.6733 61.8698C20.1247 60.3385 17.0298 58.2523 14.3885 55.6111C11.7474 52.9699 9.66113 49.875 8.12988 46.3263C6.59863 42.7777 5.83301 39.0023 5.83301 35C5.83301 30.9977 6.59863 27.2222 8.12988 23.6736C9.66113 20.125 11.7474 17.0301 14.3885 14.3888C17.0298 11.7477 20.1247 9.66144 23.6733 8.13019C27.2219 6.59894 30.9974 5.83331 34.9997 5.83331C39.002 5.83331 42.7774 6.59894 46.326 8.13019C49.8747 9.66144 52.9696 11.7477 55.6108 14.3888C58.252 17.0301 60.3382 20.125 61.8695 23.6736C63.4007 27.2222 64.1663 30.9977 64.1663 35C64.1663 39.0023 63.4007 42.7777 61.8695 46.3263C60.3382 49.875 58.252 52.9699 55.6108 55.6111C52.9696 58.2523 49.8747 60.3385 46.326 61.8698C42.7774 63.401 39.002 64.1666 34.9997 64.1666ZM34.9997 59.3056C41.6918 59.3056 47.4158 56.9277 52.1716 52.1719C56.9274 47.4161 59.3053 41.6921 59.3053 35C59.3053 28.3078 56.9274 22.5839 52.1716 17.8281C47.4158 13.0723 41.6918 10.6944 34.9997 10.6944C28.3075 10.6944 22.5836 13.0723 17.8278 17.8281C13.072 22.5839 10.6941 28.3078 10.6941 35C10.6941 41.6921 13.072 47.4161 17.8278 52.1719C22.5836 56.9277 28.3075 59.3056 34.9997 59.3056Z" fill="white"/>
</svg>
