<svg width="70" height="70" viewBox="0 0 70 70" fill="none" xmlns="http://www.w3.org/2000/svg">
<path d="M34.8556 52.2083C35.7134 52.2083 36.4381 51.9122 37.0295 51.3198C37.6209 50.7275 37.9167 50.0023 37.9167 49.1444C37.9167 48.2866 37.6205 47.562 37.0281 46.9705C36.4358 46.3791 35.7107 46.0833 34.8528 46.0833C33.9949 46.0833 33.2702 46.3795 32.6788 46.9719C32.0874 47.5642 31.7917 48.2893 31.7917 49.1472C31.7917 50.0051 32.0879 50.7298 32.6802 51.3212C33.2726 51.9126 33.9977 52.2083 34.8556 52.2083ZM32.375 41.2708H36.9444C36.9444 39.6829 37.1713 38.4352 37.625 37.5278C38.0787 36.6204 38.9168 35.5554 40.1392 34.333C41.7848 32.6874 42.9357 31.261 43.592 30.0538C44.2482 28.8466 44.5764 27.5463 44.5764 26.1528C44.5764 23.5764 43.7338 21.5226 42.0486 19.9913C40.3634 18.4601 38.0945 17.6945 35.2419 17.6945C32.6699 17.6945 30.4836 18.3102 28.6832 19.5417C26.8828 20.7731 25.5856 22.4745 24.7917 24.6458L28.9722 26.3472C29.5393 25.0023 30.3528 23.9612 31.4125 23.224C32.4722 22.4867 33.7086 22.118 35.1216 22.118C36.5961 22.118 37.7789 22.4948 38.6701 23.2482C39.5613 24.0017 40.007 25.0282 40.007 26.3277C40.007 27.2481 39.7396 28.162 39.2049 29.0695C38.6702 29.9768 37.7709 31.022 36.507 32.2049C34.7732 33.8091 33.651 35.2309 33.1406 36.4705C32.6302 37.7101 32.375 39.3102 32.375 41.2708ZM13.6111 61.25C12.2986 61.25 11.1603 60.7679 10.1962 59.8038C9.23205 58.8397 8.75 57.7014 8.75 56.3889V13.6111C8.75 12.2986 9.23205 11.1603 10.1962 10.1962C11.1603 9.23205 12.2986 8.75 13.6111 8.75H56.3889C57.7014 8.75 58.8397 9.23205 59.8038 10.1962C60.7679 11.1603 61.25 12.2986 61.25 13.6111V56.3889C61.25 57.7014 60.7679 58.8397 59.8038 59.8038C58.8397 60.7679 57.7014 61.25 56.3889 61.25H13.6111ZM13.6111 56.3889H56.3889V13.6111H13.6111V56.3889Z" fill="white"/>
</svg>
