<svg width="234" height="85" viewBox="0 0 234 85" fill="none" xmlns="http://www.w3.org/2000/svg">
<path d="M1.19531 36C1.13672 36 1.0957 35.9824 1.07227 35.9473C1.06055 35.9121 1.05469 35.8828 1.05469 35.8594V34.9102C1.05469 34.8867 1.06055 34.8574 1.07227 34.8223C1.0957 34.7871 1.13672 34.7695 1.19531 34.7695C1.55859 34.7695 1.92188 34.7461 2.28516 34.6992C2.66016 34.6406 3 34.5234 3.30469 34.3477C3.60938 34.1719 3.85547 33.9199 4.04297 33.5918C4.24219 33.2637 4.3418 32.8184 4.3418 32.2559V14.6426C4.3418 14.2441 4.27734 13.9102 4.14844 13.6406C4.01953 13.3711 3.83789 13.1543 3.60352 12.9902C3.36914 12.8145 3.08789 12.6855 2.75977 12.6035C2.43164 12.5215 2.06836 12.4687 1.66992 12.4453C1.57617 12.4453 1.5293 12.3984 1.5293 12.3047V11.3555C1.5293 11.2617 1.57031 11.2148 1.65234 11.2148H12.0586C12.1172 11.2148 12.1523 11.2324 12.1641 11.2676C12.1875 11.3027 12.1992 11.332 12.1992 11.3555V12.3047C12.1992 12.375 12.1523 12.4102 12.0586 12.4102C11.707 12.4102 11.3672 12.4453 11.0391 12.5156C10.7109 12.5742 10.4238 12.6914 10.1777 12.8672C9.93164 13.043 9.73242 13.2949 9.58008 13.623C9.42773 13.9395 9.35156 14.3613 9.35156 14.8887V22.1309C9.35156 22.248 9.36914 22.3242 9.4043 22.3594C9.43945 22.3945 9.51562 22.4121 9.63281 22.4121H21.9023C22.0195 22.4121 22.0957 22.3945 22.1309 22.3594C22.166 22.3242 22.1836 22.248 22.1836 22.1309V14.6074C22.1836 14.1973 22.0547 13.8574 21.7969 13.5879C21.5391 13.3184 21.2109 13.1074 20.8125 12.9551C20.4258 12.791 20.0039 12.6738 19.5469 12.6035C19.0898 12.5215 18.668 12.4687 18.2812 12.4453C18.1875 12.4453 18.1406 12.3984 18.1406 12.3047V11.3555C18.1406 11.2617 18.1816 11.2148 18.2637 11.2148H29.9883C30.0469 11.2148 30.082 11.2324 30.0938 11.2676C30.1172 11.3027 30.1289 11.332 30.1289 11.3555V12.3047C30.1289 12.375 30.082 12.4102 29.9883 12.4102C29.6367 12.4102 29.291 12.4453 28.9512 12.5156C28.623 12.5742 28.3242 12.6914 28.0547 12.8672C27.7969 13.043 27.5859 13.2949 27.4219 13.623C27.2695 13.9395 27.1934 14.3613 27.1934 14.8887V32.291C27.1934 32.5957 27.2344 32.8711 27.3164 33.1172C27.4102 33.3516 27.5508 33.5859 27.7383 33.8203C27.9258 34.0781 28.2305 34.2949 28.6523 34.4707C29.0859 34.6465 29.6953 34.7461 30.4805 34.7695C30.5742 34.7695 30.6211 34.8164 30.6211 34.9102V35.8594C30.6211 35.9531 30.5742 36 30.4805 36H17.7188C17.6602 36 17.6191 35.9824 17.5957 35.9473C17.584 35.9121 17.5781 35.8828 17.5781 35.8594V34.9102C17.5781 34.8867 17.584 34.8574 17.5957 34.8223C17.6191 34.7871 17.6602 34.7695 17.7188 34.7695C18.0703 34.7695 18.498 34.7461 19.002 34.6992C19.5059 34.6523 19.9922 34.5527 20.4609 34.4004C20.9414 34.2363 21.3457 34.0078 21.6738 33.7148C22.0137 33.4102 22.1836 33 22.1836 32.4844V24.8906C22.1836 24.7734 22.166 24.6973 22.1309 24.6621C22.0957 24.627 22.0195 24.6094 21.9023 24.6094H9.63281C9.51562 24.6094 9.43945 24.627 9.4043 24.6621C9.36914 24.6973 9.35156 24.7734 9.35156 24.8906V32.6602C9.35156 33.0586 9.43945 33.3926 9.61523 33.6621C9.79102 33.9316 10.0195 34.1484 10.3008 34.3125C10.5938 34.4766 10.9277 34.5938 11.3027 34.6641C11.6777 34.7344 12.0645 34.7695 12.4629 34.7695C12.5332 34.7695 12.5742 34.7871 12.5859 34.8223C12.5977 34.8574 12.6035 34.8867 12.6035 34.9102V35.8594C12.6035 35.8828 12.5977 35.9121 12.5859 35.9473C12.5742 35.9824 12.5391 36 12.4805 36H1.19531ZM32.9062 28.8809C32.9062 27.5098 33.0996 26.25 33.4863 25.1016C33.873 23.9414 34.4297 22.9395 35.1562 22.0957C35.8828 21.252 36.7676 20.5957 37.8105 20.127C38.8652 19.6582 40.0605 19.4238 41.3965 19.4238C41.7949 19.4238 42.1523 19.4531 42.4688 19.5117C42.7852 19.5586 43.0723 19.6289 43.3301 19.7227C43.5996 19.8047 43.8457 19.9102 44.0684 20.0391C44.3027 20.1562 44.5371 20.2852 44.7715 20.4258C45.041 20.5664 45.3457 20.8184 45.6855 21.1816C46.0371 21.5449 46.3652 21.9668 46.6699 22.4473C46.9746 22.9277 47.2324 23.4434 47.4434 23.9941C47.6543 24.5332 47.7598 25.0547 47.7598 25.5586C47.7598 25.7227 47.7246 25.9043 47.6543 26.1035C47.5957 26.291 47.4902 26.3848 47.3379 26.3848H36.9668C36.8496 26.3848 36.7676 26.4902 36.7207 26.7012C36.6855 26.9121 36.668 27.1699 36.668 27.4746C36.668 28.5059 36.8145 29.4258 37.1074 30.2344C37.4121 31.0312 37.8164 31.7109 38.3203 32.2734C38.8242 32.8242 39.4043 33.2461 40.0605 33.5391C40.7168 33.8203 41.4082 33.9609 42.1348 33.9609C42.5918 33.9609 43.0312 33.9023 43.4531 33.7852C43.875 33.6562 44.2793 33.4922 44.666 33.293C45.0527 33.0938 45.416 32.8711 45.7559 32.625C46.0957 32.3789 46.418 32.1328 46.7227 31.8867C46.793 31.8633 46.8398 31.8516 46.8633 31.8516C46.8984 31.8516 46.9453 31.8809 47.0039 31.9395C47.1094 32.0332 47.2148 32.1445 47.3203 32.2734C47.4258 32.3906 47.5078 32.4902 47.5664 32.5723C47.6016 32.6074 47.6191 32.6426 47.6191 32.6777C47.6191 32.7129 47.5957 32.7539 47.5488 32.8008C47.1621 33.2578 46.6875 33.709 46.125 34.1543C45.5625 34.5879 44.959 34.9805 44.3145 35.332C43.6816 35.6719 43.0312 35.9473 42.3633 36.1582C41.6953 36.3691 41.0625 36.4746 40.4648 36.4746C39.2578 36.4746 38.1855 36.2578 37.248 35.8242C36.3105 35.3789 35.5195 34.7988 34.875 34.084C34.2305 33.3691 33.7383 32.5605 33.3984 31.6582C33.0703 30.7441 32.9062 29.8184 32.9062 28.8809ZM43.2246 25.0312C43.5293 25.0312 43.6816 24.8965 43.6816 24.627C43.6816 24.1699 43.6055 23.7422 43.4531 23.3438C43.3125 22.9336 43.1074 22.5762 42.8379 22.2715C42.5684 21.9551 42.2402 21.709 41.8535 21.5332C41.4785 21.3574 41.0566 21.2695 40.5879 21.2695C40.0254 21.2695 39.5332 21.3926 39.1113 21.6387C38.6895 21.873 38.332 22.1602 38.0391 22.5C37.7461 22.8398 37.5234 23.1914 37.3711 23.5547C37.2305 23.918 37.1602 24.2285 37.1602 24.4863C37.1602 24.6855 37.1895 24.8262 37.248 24.9082C37.3066 24.9902 37.3828 25.0312 37.4766 25.0312H43.2246ZM58.0605 35.6484C57.6738 35.918 57.2168 36.1289 56.6895 36.2812C56.1621 36.4336 55.6348 36.5098 55.1074 36.5098C53.6777 36.5098 52.5879 36.1875 51.8379 35.543C51.0996 34.8984 50.7305 34.0254 50.7305 32.9238C50.7305 32.291 50.8711 31.7461 51.1523 31.2891C51.4453 30.832 51.873 30.4277 52.4355 30.0762C52.998 29.7246 53.6895 29.4082 54.5098 29.127C55.3418 28.834 56.3027 28.5469 57.3926 28.2656C57.9785 28.1133 58.4473 27.9492 58.7988 27.7734C59.1621 27.5977 59.4961 27.4277 59.8008 27.2637C60 27.1582 60.1113 27.0645 60.1348 26.9824C60.1699 26.9004 60.1875 26.8242 60.1875 26.7539V23.6953C60.1875 23.3086 60.1289 22.9512 60.0117 22.623C59.9062 22.2832 59.7422 21.9902 59.5195 21.7441C59.2969 21.498 59.0273 21.3047 58.7109 21.1641C58.3945 21.0234 58.0371 20.9531 57.6387 20.9531C57.2988 20.9531 56.9824 21.0117 56.6895 21.1289C56.3965 21.2461 56.1445 21.416 55.9336 21.6387C55.7227 21.8613 55.5527 22.125 55.4238 22.4297C55.3066 22.7344 55.248 23.0801 55.248 23.4668C55.248 23.502 55.248 23.5547 55.248 23.625C55.2598 23.6953 55.2715 23.7715 55.2832 23.8535C55.2949 23.9238 55.3066 23.9883 55.3184 24.0469C55.3301 24.1055 55.3359 24.1406 55.3359 24.1523C55.3242 24.1758 55.2246 24.2227 55.0371 24.293C54.8613 24.3633 54.6387 24.4453 54.3691 24.5391C54.1113 24.6211 53.8242 24.709 53.5078 24.8027C53.1914 24.8848 52.8867 24.9668 52.5938 25.0488C52.3125 25.1309 52.0605 25.207 51.8379 25.2773C51.627 25.3359 51.4805 25.3711 51.3984 25.3828C51.2695 25.3828 51.1875 25.3184 51.1523 25.1895C51.1289 25.0488 51.1172 24.9141 51.1172 24.7852C51.1172 24.1055 51.3223 23.4434 51.7324 22.7988C52.1426 22.1543 52.6875 21.5859 53.3672 21.0938C54.0586 20.5898 54.8496 20.1855 55.7402 19.8809C56.6309 19.5762 57.5508 19.4238 58.5 19.4238C59.3438 19.4238 60.0996 19.5352 60.7676 19.7578C61.4355 19.9688 62.0039 20.2676 62.4727 20.6543C62.9414 21.0293 63.2988 21.4688 63.5449 21.9727C63.791 22.4648 63.9141 22.9922 63.9141 23.5547V31.9395C63.9141 32.2441 64.0254 32.5195 64.248 32.7656C64.4824 33 64.7812 33.1172 65.1445 33.1172C65.3555 33.1172 65.543 33.082 65.707 33.0117C65.8828 32.9297 66.0352 32.8418 66.1641 32.748C66.3047 32.6426 66.4219 32.5547 66.5156 32.4844C66.6094 32.4023 66.6914 32.3613 66.7617 32.3613C66.8555 32.3613 66.9082 32.4023 66.9199 32.4844C66.9316 32.5547 66.9375 32.6191 66.9375 32.6777C66.9375 32.877 66.9082 33.082 66.8496 33.293C66.8027 33.4922 66.7148 33.6387 66.5859 33.7324C66.0117 34.166 65.502 34.5586 65.0566 34.9102C64.6113 35.25 64.207 35.543 63.8438 35.7891C63.4805 36.0352 63.1523 36.2227 62.8594 36.3516C62.5664 36.4805 62.291 36.5449 62.0332 36.5449C61.7988 36.5449 61.5879 36.4805 61.4004 36.3516C61.2246 36.2227 61.0664 36.0645 60.9258 35.877C60.7969 35.6895 60.6855 35.4902 60.5918 35.2793C60.498 35.0566 60.416 34.8516 60.3457 34.6641C60.2871 34.4766 60.2402 34.3242 60.2051 34.207C60.1699 34.0898 60.1406 34.0371 60.1172 34.0488L58.0605 35.6484ZM54.8262 32.502C54.8262 32.8184 54.8848 33.0762 55.002 33.2754C55.1309 33.4746 55.2949 33.627 55.4941 33.7324C55.6934 33.8379 55.916 33.9141 56.1621 33.9609C56.4199 33.9961 56.6836 34.0137 56.9531 34.0137C57.1992 34.0137 57.5039 33.9551 57.8672 33.8379C58.2305 33.709 58.582 33.5449 58.9219 33.3457C59.2734 33.1348 59.5723 32.9004 59.8184 32.6426C60.0645 32.373 60.1875 32.1035 60.1875 31.834V28.9336C60.1875 28.8047 60.1406 28.7402 60.0469 28.7402C60.0234 28.7402 60 28.7461 59.9766 28.7578L55.8984 30.6562C55.7344 30.7734 55.582 30.8848 55.4414 30.9902C55.3125 31.084 55.2012 31.2012 55.1074 31.3418C55.0137 31.4707 54.9434 31.6289 54.8965 31.8164C54.8496 31.9922 54.8262 32.2207 54.8262 32.502ZM77.2734 35.4727C77.2734 35.543 77.2617 35.6426 77.2383 35.7715C77.2148 35.9004 77.168 35.9766 77.0977 36H67.9219C67.8516 35.9766 67.8047 35.9004 67.7812 35.7715C67.7578 35.6426 67.7461 35.543 67.7461 35.4727C67.7461 35.4141 67.7637 35.3203 67.7988 35.1914C67.834 35.0625 67.875 34.9863 67.9219 34.9629C68.0742 34.8926 68.291 34.8398 68.5723 34.8047C68.8535 34.7578 69.1348 34.6758 69.416 34.5586C69.6973 34.4297 69.9434 34.2363 70.1543 33.9785C70.3652 33.709 70.4707 33.3164 70.4707 32.8008V12.3047C70.4707 12.0234 70.3945 11.8066 70.2422 11.6543C70.0898 11.4902 69.8965 11.3672 69.6621 11.2852C69.4277 11.2031 69.1758 11.1387 68.9062 11.0918C68.6367 11.0332 68.3789 10.9688 68.1328 10.8984C67.9805 10.8398 67.9043 10.6758 67.9043 10.4062C67.9043 10.3477 67.9219 10.2715 67.957 10.1777C67.9922 10.0723 68.0625 9.99023 68.168 9.93164L73.9863 7.18945C74.0332 7.16602 74.0859 7.14258 74.1445 7.11914C74.2031 7.0957 74.2676 7.08398 74.3379 7.08398C74.4316 7.08398 74.4902 7.11914 74.5137 7.18945C74.5371 7.24805 74.5488 7.35352 74.5488 7.50586V32.8008C74.5488 33.3164 74.6543 33.709 74.8652 33.9785C75.0762 34.2363 75.3223 34.4297 75.6035 34.5586C75.8848 34.6758 76.166 34.7578 76.4473 34.8047C76.7285 34.8398 76.9453 34.8926 77.0977 34.9629C77.1445 34.9863 77.1855 35.0625 77.2207 35.1914C77.2559 35.3203 77.2734 35.4141 77.2734 35.4727ZM80.5605 22.4473H79.2422C79.0781 22.4473 78.9492 22.4062 78.8555 22.3242C78.7617 22.2422 78.709 22.1543 78.6973 22.0605C78.6973 22.002 78.709 21.9375 78.7324 21.8672C78.7559 21.7969 78.7852 21.75 78.8203 21.7266C79.0547 21.5742 79.3066 21.3984 79.5762 21.1992C79.8574 20.9883 80.1328 20.7715 80.4023 20.5488C80.6719 20.3262 80.9355 20.1035 81.1934 19.8809C81.4512 19.6582 81.6797 19.4531 81.8789 19.2656C81.9961 19.1367 82.1543 18.9434 82.3535 18.6855C82.5645 18.4277 82.7988 18.1758 83.0566 17.9297C83.3262 17.6719 83.6133 17.4492 83.918 17.2617C84.2227 17.0625 84.5332 16.9629 84.8496 16.9629C84.9199 16.9629 85.002 16.9863 85.0957 17.0332C85.1895 17.0801 85.2363 17.1387 85.2363 17.209C85.2363 17.291 85.2129 17.4199 85.166 17.5957C85.1309 17.7598 85.084 17.9473 85.0254 18.1582C84.9668 18.3691 84.9023 18.5918 84.832 18.8262C84.7617 19.0605 84.6973 19.2891 84.6387 19.5117C84.6387 19.6055 84.6504 19.6816 84.6738 19.7402C84.709 19.7988 84.791 19.834 84.9199 19.8457H89.4023C89.5898 19.8457 89.7188 19.8809 89.7891 19.9512C89.8594 20.0098 89.9121 20.0918 89.9473 20.1973C89.9707 20.2559 89.9941 20.3789 90.0176 20.5664C90.041 20.7422 90.0645 20.9414 90.0879 21.1641C90.1113 21.375 90.1289 21.5918 90.1406 21.8145C90.1641 22.0254 90.1758 22.2012 90.1758 22.3418C90.1758 22.4121 90.1289 22.4473 90.0352 22.4473H84.7441C84.6855 22.4473 84.6504 22.459 84.6387 22.4824C84.6387 22.5059 84.6387 22.5469 84.6387 22.6055V31.3418C84.6387 31.7168 84.6855 32.0449 84.7793 32.3262C84.873 32.6074 84.9902 32.8418 85.1309 33.0293C85.2832 33.2168 85.4531 33.3574 85.6406 33.4512C85.8281 33.5449 86.0156 33.5918 86.2031 33.5918C86.7422 33.5918 87.1816 33.5156 87.5215 33.3633C87.8613 33.1992 88.1543 33.0234 88.4004 32.8359C88.6465 32.6484 88.8633 32.4785 89.0508 32.3262C89.2383 32.1621 89.4492 32.0801 89.6836 32.0801C89.8477 32.0801 89.9414 32.1445 89.9648 32.2734C90 32.4023 90.0176 32.502 90.0176 32.5723C90.0176 32.7246 89.9941 32.8477 89.9473 32.9414C89.9121 33.0234 89.8828 33.0879 89.8594 33.1348C89.8477 33.1582 89.7832 33.2578 89.666 33.4336C89.5488 33.6094 89.3906 33.8203 89.1914 34.0664C88.9922 34.3125 88.7461 34.5762 88.4531 34.8574C88.1719 35.1387 87.8555 35.4023 87.5039 35.6484C87.1523 35.8828 86.7656 36.0762 86.3438 36.2285C85.9336 36.3926 85.5 36.4746 85.043 36.4746C84.4102 36.4746 83.8184 36.3574 83.2676 36.123C82.7168 35.8887 82.2422 35.5781 81.8438 35.1914C81.4453 34.793 81.1289 34.3418 80.8945 33.8379C80.6719 33.334 80.5605 32.8125 80.5605 32.2734V22.4473ZM100.688 35.4727C100.688 35.543 100.676 35.6426 100.652 35.7715C100.629 35.9004 100.582 35.9766 100.512 36H91.3359C91.2656 35.9766 91.2188 35.9004 91.1953 35.7715C91.1719 35.6426 91.1602 35.543 91.1602 35.4727C91.1602 35.4141 91.1777 35.3203 91.2129 35.1914C91.248 35.0508 91.2891 34.9688 91.3359 34.9453C91.4883 34.875 91.7051 34.8223 91.9863 34.7871C92.2676 34.7402 92.5488 34.6582 92.8301 34.541C93.1113 34.4121 93.3574 34.2188 93.5684 33.9609C93.7793 33.6914 93.8848 33.2988 93.8848 32.7832V12.0234C93.8848 11.7422 93.8086 11.5254 93.6562 11.373C93.5039 11.209 93.3105 11.0859 93.0762 11.0039C92.8418 10.9219 92.5898 10.8574 92.3203 10.8105C92.0508 10.752 91.793 10.6875 91.5469 10.6172C91.4766 10.5938 91.418 10.5645 91.3711 10.5293C91.3359 10.4824 91.3184 10.3945 91.3184 10.2656C91.3184 10.207 91.3359 10.1484 91.3711 10.0898C91.4062 10.0313 91.4766 9.97266 91.582 9.91406L97.4004 7.18945C97.4473 7.16602 97.4941 7.14258 97.541 7.11914C97.5996 7.0957 97.6406 7.08398 97.6641 7.08398C97.8633 7.08398 97.9629 7.22461 97.9629 7.50586V22.3945C97.9629 22.4414 97.9688 22.5234 97.9805 22.6406C97.9922 22.7578 98.0273 22.8164 98.0859 22.8164C98.168 22.8164 98.2266 22.7988 98.2617 22.7637C98.2969 22.7168 98.3496 22.6582 98.4199 22.5879C98.7598 22.2012 99.1055 21.8379 99.457 21.498C99.8086 21.1465 100.195 20.8418 100.617 20.584C101.039 20.3145 101.514 20.1035 102.041 19.9512C102.568 19.7988 103.184 19.7227 103.887 19.7227C104.613 19.7227 105.328 19.8105 106.031 19.9863C106.746 20.1504 107.379 20.4668 107.93 20.9355C108.492 21.3926 108.943 22.0312 109.283 22.8516C109.635 23.6602 109.811 24.709 109.811 25.998V32.7832C109.811 33.2988 109.916 33.6914 110.127 33.9609C110.338 34.2188 110.584 34.4121 110.865 34.541C111.146 34.6582 111.428 34.7402 111.709 34.7871C111.99 34.8223 112.207 34.875 112.359 34.9453C112.406 34.9688 112.447 35.0508 112.482 35.1914C112.518 35.3203 112.535 35.4141 112.535 35.4727C112.535 35.543 112.523 35.6426 112.5 35.7715C112.477 35.9004 112.43 35.9766 112.359 36H103.184C103.113 35.9766 103.066 35.9004 103.043 35.7715C103.02 35.6426 103.008 35.543 103.008 35.4727C103.008 35.4141 103.025 35.3203 103.061 35.1914C103.096 35.0508 103.137 34.9688 103.184 34.9453C103.336 34.875 103.553 34.8223 103.834 34.7871C104.115 34.7402 104.396 34.6582 104.678 34.541C104.959 34.4121 105.205 34.2188 105.416 33.9609C105.627 33.6914 105.732 33.2988 105.732 32.7832V26.7363C105.732 26.0566 105.715 25.418 105.68 24.8203C105.645 24.2227 105.521 23.7012 105.311 23.2559C105.111 22.8105 104.783 22.4648 104.326 22.2188C103.881 21.9609 103.248 21.832 102.428 21.832C102.006 21.832 101.537 21.9375 101.021 22.1484C100.506 22.3477 100.02 22.623 99.5625 22.9746C99.1055 23.3145 98.7246 23.7129 98.4199 24.1699C98.1152 24.6152 97.9629 25.084 97.9629 25.5762V32.7832C97.9629 33.2988 98.0684 33.6914 98.2793 33.9609C98.4902 34.2188 98.7363 34.4121 99.0176 34.541C99.2988 34.6582 99.5801 34.7402 99.8613 34.7871C100.143 34.8223 100.359 34.875 100.512 34.9453C100.559 34.9688 100.6 35.0508 100.635 35.1914C100.67 35.3203 100.688 35.4141 100.688 35.4727ZM118.564 46.8984C118.354 46.8984 118.148 46.8633 117.949 46.793C117.75 46.7227 117.568 46.623 117.404 46.4941C117.24 46.3652 117.105 46.2129 117 46.0371C116.906 45.873 116.859 45.6855 116.859 45.4746C116.859 45.1465 116.941 44.8945 117.105 44.7188C117.281 44.543 117.492 44.3965 117.738 44.2793C117.984 44.1621 118.242 44.0625 118.512 43.9805C118.781 43.8984 119.01 43.7871 119.197 43.6465C119.326 43.5527 119.461 43.4414 119.602 43.3125C119.754 43.1953 119.889 43.002 120.006 42.7324L122.309 37.3711L115.576 23.3262C115.377 22.7871 115.09 22.3184 114.715 21.9199C114.34 21.5098 113.883 21.2168 113.344 21.041C113.262 21.0176 113.162 20.9941 113.045 20.9707C112.928 20.9355 112.816 20.8945 112.711 20.8477C112.594 20.8008 112.5 20.7422 112.43 20.6719C112.348 20.5898 112.307 20.4844 112.307 20.3555C112.307 20.2383 112.342 20.1211 112.412 20.0039C112.482 19.8867 112.588 19.8281 112.729 19.8281H122.01C122.08 19.8281 122.121 19.8984 122.133 20.0391C122.145 20.1797 122.15 20.2676 122.15 20.3027C122.15 20.4668 122.08 20.584 121.939 20.6543C121.811 20.7129 121.646 20.7539 121.447 20.7773C121.248 20.8008 121.031 20.8184 120.797 20.8301C120.574 20.8418 120.363 20.8828 120.164 20.9531C119.965 21.0234 119.795 21.1348 119.654 21.2871C119.525 21.4395 119.461 21.668 119.461 21.9727C119.461 22.0078 119.484 22.084 119.531 22.2012C119.59 22.3066 119.619 22.3711 119.619 22.3945L123.979 31.7285C124.002 31.7871 124.043 31.875 124.102 31.9922C124.172 32.0977 124.248 32.1504 124.33 32.1504C124.377 32.1504 124.424 32.127 124.471 32.0801C124.518 32.0215 124.559 31.957 124.594 31.8867C124.629 31.8164 124.658 31.752 124.682 31.6934C124.705 31.623 124.723 31.5762 124.734 31.5527C125.273 30.1699 125.725 28.998 126.088 28.0371C126.463 27.0762 126.768 26.2793 127.002 25.6465C127.248 25.0137 127.43 24.5215 127.547 24.1699C127.676 23.8066 127.764 23.5312 127.811 23.3438C127.869 23.1445 127.904 23.0039 127.916 22.9219C127.928 22.8281 127.934 22.7402 127.934 22.6582C127.957 22.248 127.834 21.9082 127.564 21.6387C127.295 21.3691 126.973 21.1699 126.598 21.041C126.492 21.0059 126.357 20.9824 126.193 20.9707C126.041 20.9473 125.889 20.918 125.736 20.8828C125.596 20.8359 125.467 20.7715 125.35 20.6895C125.244 20.5957 125.191 20.4668 125.191 20.3027C125.191 20.209 125.232 20.1094 125.314 20.0039C125.396 19.8867 125.484 19.8281 125.578 19.8281H132.592C132.686 19.8281 132.738 19.8984 132.75 20.0391C132.773 20.168 132.785 20.2617 132.785 20.3203C132.785 20.4023 132.773 20.4727 132.75 20.5312C132.727 20.5898 132.668 20.6426 132.574 20.6895C132.492 20.7363 132.369 20.7832 132.205 20.8301C132.053 20.877 131.848 20.9238 131.59 20.9707C131.344 21.0176 131.121 21.1406 130.922 21.3398C130.723 21.5273 130.541 21.75 130.377 22.0078C130.225 22.2539 130.084 22.5176 129.955 22.7988C129.838 23.0801 129.732 23.332 129.639 23.5547L120.727 45.6328C120.633 45.8555 120.498 46.043 120.322 46.1953C120.146 46.3594 119.953 46.4941 119.742 46.5996C119.531 46.7051 119.32 46.7812 119.109 46.8281C118.898 46.875 118.717 46.8984 118.564 46.8984Z" fill="white"/>
<path d="M143.391 35.5254C143.238 35.5254 143.145 35.4023 143.109 35.1562C142.98 34.0547 142.881 33.1992 142.811 32.5898C142.74 31.9805 142.688 31.5234 142.652 31.2188C142.629 30.9141 142.611 30.7207 142.6 30.6387C142.6 30.5449 142.6 30.4805 142.6 30.4453C142.6 30.3164 142.658 30.1758 142.775 30.0234C142.893 29.8711 143.033 29.7949 143.197 29.7949C143.314 29.7949 143.438 29.8652 143.566 30.0059C143.707 30.1465 143.836 30.3105 143.953 30.498C144.082 30.6855 144.188 30.873 144.27 31.0605C144.363 31.248 144.422 31.3828 144.445 31.4648C144.75 32.1094 145.078 32.6543 145.43 33.0996C145.793 33.5332 146.203 33.8848 146.66 34.1543C147.117 34.4121 147.633 34.5996 148.207 34.7168C148.781 34.834 149.438 34.8926 150.176 34.8926C151.43 34.8926 152.402 34.5938 153.094 33.9961C153.797 33.3984 154.148 32.4375 154.148 31.1133C154.148 30.3516 153.979 29.6602 153.639 29.0391C153.311 28.418 152.877 27.8438 152.338 27.3164C151.799 26.7773 151.184 26.2676 150.492 25.7871C149.801 25.3066 149.092 24.8203 148.365 24.3281C147.639 23.8359 146.93 23.3262 146.238 22.7988C145.547 22.2598 144.932 21.668 144.393 21.0234C143.854 20.3789 143.414 19.6641 143.074 18.8789C142.746 18.0938 142.582 17.209 142.582 16.2246C142.582 15.627 142.688 15.0703 142.898 14.5547C143.121 14.0391 143.414 13.5703 143.777 13.1484C144.141 12.7266 144.562 12.3516 145.043 12.0234C145.535 11.6836 146.057 11.4023 146.607 11.1797C147.158 10.9453 147.715 10.7695 148.277 10.6523C148.852 10.5352 149.408 10.4766 149.947 10.4766C150.381 10.4766 150.814 10.5176 151.248 10.5996C151.693 10.6699 152.127 10.7578 152.549 10.8633C152.982 10.9688 153.416 11.0859 153.85 11.2148C154.283 11.332 154.711 11.4434 155.133 11.5488L156.293 11.4434C156.398 11.4434 156.463 11.4902 156.486 11.584C156.521 11.666 156.545 11.7422 156.557 11.8125L157.066 15.9434C157.066 16.002 156.99 16.043 156.838 16.0664C156.686 16.0898 156.568 16.1016 156.486 16.1016C156.416 16.1016 156.311 16.0957 156.17 16.084C156.029 16.0605 155.947 16.0371 155.924 16.0137C155.889 15.9785 155.842 15.9082 155.783 15.8027C155.736 15.6855 155.684 15.5625 155.625 15.4336C155.566 15.293 155.502 15.1523 155.432 15.0117C155.373 14.8711 155.309 14.748 155.238 14.6426C154.676 13.7754 153.955 13.1309 153.076 12.709C152.197 12.2754 151.23 12.0586 150.176 12.0586C149.719 12.0586 149.291 12.1113 148.893 12.2168C148.494 12.3223 148.148 12.4922 147.855 12.7266C147.562 12.9492 147.328 13.2363 147.152 13.5879C146.988 13.9395 146.906 14.3613 146.906 14.8535C146.906 15.5684 147.07 16.2188 147.398 16.8047C147.738 17.3789 148.178 17.9238 148.717 18.4395C149.268 18.9434 149.889 19.4355 150.58 19.916C151.283 20.3965 151.992 20.8887 152.707 21.3926C153.434 21.8848 154.143 22.4121 154.834 22.9746C155.537 23.5371 156.158 24.1582 156.697 24.8379C157.248 25.5176 157.688 26.2734 158.016 27.1055C158.355 27.9375 158.525 28.875 158.525 29.918C158.525 30.6094 158.402 31.2539 158.156 31.8516C157.922 32.4492 157.6 32.9941 157.189 33.4863C156.779 33.9668 156.299 34.3945 155.748 34.7695C155.197 35.1445 154.605 35.4609 153.973 35.7188C153.352 35.9648 152.707 36.1523 152.039 36.2812C151.383 36.4102 150.738 36.4746 150.105 36.4746C149.309 36.4746 148.611 36.416 148.014 36.2988C147.428 36.1816 146.918 36.0527 146.484 35.9121C146.062 35.7598 145.705 35.625 145.412 35.5078C145.119 35.3906 144.873 35.332 144.674 35.332C144.604 35.332 144.551 35.3379 144.516 35.3496L143.391 35.5254ZM167.104 18.9492C167.15 18.9258 167.197 18.9023 167.244 18.8789C167.303 18.8555 167.344 18.8438 167.367 18.8438C167.566 18.8438 167.666 18.9844 167.666 19.2656V22.1836C167.678 22.2539 167.725 22.2891 167.807 22.2891C167.877 22.2891 167.959 22.2656 168.053 22.2188C168.58 21.9375 169.096 21.6504 169.6 21.3574C170.104 21.0527 170.607 20.7773 171.111 20.5312C171.627 20.2852 172.143 20.0859 172.658 19.9336C173.174 19.7812 173.695 19.7051 174.223 19.7051C174.75 19.7051 175.195 19.7695 175.559 19.8984C175.922 20.0273 176.227 20.1973 176.473 20.4082C176.719 20.6074 176.918 20.8301 177.07 21.0762C177.234 21.3105 177.375 21.5391 177.492 21.7617C177.504 21.7969 177.527 21.8438 177.562 21.9023C177.598 21.9492 177.639 22.002 177.686 22.0605C177.744 22.1191 177.797 22.1719 177.844 22.2188C177.902 22.2539 177.961 22.2715 178.02 22.2715C178.184 22.2598 178.354 22.207 178.529 22.1133C179.666 21.5391 180.592 21.0938 181.307 20.7773C182.033 20.4492 182.637 20.209 183.117 20.0566C183.609 19.8926 184.02 19.793 184.348 19.7578C184.688 19.7227 185.033 19.7051 185.385 19.7051C186.076 19.7051 186.668 19.8281 187.16 20.0742C187.664 20.3203 188.086 20.6484 188.426 21.0586C188.766 21.457 189.035 21.9199 189.234 22.4473C189.445 22.9629 189.604 23.4961 189.709 24.0469C189.814 24.5859 189.885 25.125 189.92 25.6641C189.955 26.1914 189.973 26.6719 189.973 27.1055C189.973 27.5156 189.961 27.8965 189.938 28.248C189.926 28.5996 189.908 28.9863 189.885 29.4082C189.873 29.8184 189.855 30.2871 189.832 30.8145C189.82 31.3418 189.814 31.9805 189.814 32.7305C189.814 33.082 189.879 33.375 190.008 33.6094C190.137 33.8438 190.301 34.0371 190.5 34.1895C190.711 34.3418 190.939 34.459 191.186 34.541C191.432 34.6113 191.672 34.6699 191.906 34.7168C192.141 34.7637 192.352 34.8047 192.539 34.8398C192.738 34.8633 192.891 34.8984 192.996 34.9453C193.043 34.9688 193.084 35.0449 193.119 35.1738C193.154 35.3027 193.172 35.3965 193.172 35.4551C193.172 35.5254 193.16 35.6309 193.137 35.7715C193.113 35.9004 193.066 35.9766 192.996 36H183.188C183.117 35.9766 183.07 35.9004 183.047 35.7715C183.023 35.6309 183.012 35.5254 183.012 35.4551C183.012 35.3965 183.029 35.3027 183.064 35.1738C183.1 35.0449 183.141 34.9688 183.188 34.9453C183.34 34.875 183.557 34.8223 183.838 34.7871C184.119 34.7402 184.4 34.6523 184.682 34.5234C184.963 34.3828 185.203 34.1719 185.402 33.8906C185.613 33.6094 185.719 33.1875 185.719 32.625V32.5898C185.777 32.2266 185.812 31.8281 185.824 31.3945C185.848 30.9492 185.859 30.4629 185.859 29.9355C185.859 29.6777 185.854 29.4375 185.842 29.2148C185.842 28.9805 185.842 28.7461 185.842 28.5117C185.842 28.2656 185.836 28.002 185.824 27.7207C185.824 27.4395 185.824 27.1172 185.824 26.7539C185.824 26.1797 185.795 25.6055 185.736 25.0312C185.689 24.457 185.561 23.9414 185.35 23.4844C185.15 23.0273 184.852 22.6582 184.453 22.377C184.055 22.084 183.504 21.9375 182.801 21.9375C182.684 21.9375 182.555 21.9551 182.414 21.9902C182.273 22.0137 182.08 22.0723 181.834 22.166C181.588 22.248 181.26 22.377 180.85 22.5527C180.439 22.7285 179.9 22.957 179.232 23.2383C179.139 23.2969 179.039 23.3672 178.934 23.4492C178.84 23.5195 178.787 23.6133 178.775 23.7305V32.7305C178.775 33.2578 178.881 33.6621 179.092 33.9434C179.303 34.2129 179.549 34.4121 179.83 34.541C180.111 34.6582 180.393 34.7402 180.674 34.7871C180.955 34.8223 181.172 34.875 181.324 34.9453C181.371 34.9688 181.412 35.0449 181.447 35.1738C181.482 35.3027 181.5 35.3965 181.5 35.4551C181.5 35.5254 181.488 35.6309 181.465 35.7715C181.441 35.9004 181.395 35.9766 181.324 36H172.148C172.078 35.9766 172.031 35.9004 172.008 35.7715C171.984 35.6309 171.973 35.5254 171.973 35.4551C171.973 35.3965 171.99 35.3027 172.025 35.1738C172.061 35.0449 172.102 34.9688 172.148 34.9453C172.301 34.875 172.518 34.8223 172.799 34.7871C173.08 34.7402 173.361 34.6582 173.643 34.541C173.924 34.4121 174.17 34.2129 174.381 33.9434C174.592 33.6621 174.697 33.2578 174.697 32.7305V25.0664C174.697 24.6094 174.662 24.1934 174.592 23.8184C174.521 23.4316 174.387 23.1035 174.188 22.834C173.988 22.5527 173.707 22.3359 173.344 22.1836C172.992 22.0312 172.529 21.9551 171.955 21.9551C171.686 21.9551 171.346 22.0312 170.936 22.1836C170.525 22.3242 170.104 22.5059 169.67 22.7285C169.248 22.9512 168.85 23.1855 168.475 23.4316C168.111 23.6777 167.842 23.9062 167.666 24.1172V32.7305C167.666 33.2578 167.771 33.6621 167.982 33.9434C168.193 34.2129 168.439 34.4121 168.721 34.541C169.002 34.6582 169.283 34.7402 169.564 34.7871C169.846 34.8223 170.062 34.875 170.215 34.9453C170.262 34.9688 170.303 35.0449 170.338 35.1738C170.373 35.3027 170.391 35.3965 170.391 35.4551C170.391 35.5254 170.379 35.6309 170.355 35.7715C170.332 35.9004 170.285 35.9766 170.215 36H161.039C160.969 35.9766 160.922 35.9004 160.898 35.7715C160.875 35.6309 160.863 35.5254 160.863 35.4551C160.863 35.3965 160.881 35.3027 160.916 35.1738C160.951 35.0449 160.992 34.9688 161.039 34.9453C161.191 34.875 161.408 34.8223 161.689 34.7871C161.971 34.7402 162.252 34.6582 162.533 34.541C162.814 34.4121 163.061 34.2188 163.271 33.9609C163.482 33.6914 163.588 33.293 163.588 32.7656V23.8184C163.588 23.5371 163.512 23.3203 163.359 23.168C163.207 23.0039 163.014 22.8809 162.779 22.7988C162.545 22.7168 162.293 22.6523 162.023 22.6055C161.754 22.5469 161.496 22.4824 161.25 22.4121C161.18 22.3887 161.121 22.3594 161.074 22.3242C161.039 22.2773 161.021 22.1895 161.021 22.0605C161.021 22.002 161.039 21.9434 161.074 21.8848C161.109 21.8262 161.18 21.7676 161.285 21.709L167.104 18.9492ZM194.473 36C194.402 35.9766 194.355 35.9004 194.332 35.7715C194.309 35.6309 194.297 35.5254 194.297 35.4551C194.297 35.3965 194.314 35.3027 194.35 35.1738C194.385 35.0449 194.426 34.9688 194.473 34.9453C194.625 34.875 194.842 34.8223 195.123 34.7871C195.404 34.7402 195.686 34.6582 195.967 34.541C196.248 34.4121 196.494 34.2188 196.705 33.9609C196.916 33.6914 197.021 33.2988 197.021 32.7832V24.3457C197.021 24.0645 196.945 23.8477 196.793 23.6953C196.641 23.5312 196.447 23.4082 196.213 23.3262C195.979 23.2441 195.727 23.1797 195.457 23.1328C195.188 23.0742 194.93 23.0098 194.684 22.9395C194.613 22.916 194.555 22.8867 194.508 22.8516C194.473 22.8047 194.455 22.7168 194.455 22.5879C194.455 22.5293 194.473 22.4707 194.508 22.4121C194.543 22.3535 194.613 22.2949 194.719 22.2363L200.537 19.4941C200.584 19.4707 200.631 19.4473 200.678 19.4238C200.736 19.4004 200.777 19.3887 200.801 19.3887C201 19.3887 201.1 19.5293 201.1 19.8105V32.7832C201.1 33.2988 201.205 33.6914 201.416 33.9609C201.627 34.2188 201.873 34.4121 202.154 34.541C202.436 34.6582 202.717 34.7402 202.998 34.7871C203.279 34.8223 203.496 34.875 203.648 34.9453C203.695 34.9688 203.736 35.0449 203.771 35.1738C203.807 35.3027 203.824 35.3965 203.824 35.4551C203.824 35.5254 203.812 35.6309 203.789 35.7715C203.766 35.9004 203.719 35.9766 203.648 36H194.473ZM196.266 13.0254C196.266 12.2754 196.488 11.6777 196.934 11.2324C197.379 10.7871 197.977 10.5645 198.727 10.5645C199.477 10.5645 200.074 10.7871 200.52 11.2324C200.965 11.6777 201.188 12.2754 201.188 13.0254C201.188 13.7754 200.965 14.373 200.52 14.8184C200.074 15.252 199.477 15.4688 198.727 15.4688C197.977 15.4688 197.379 15.252 196.934 14.8184C196.488 14.373 196.266 13.7754 196.266 13.0254ZM214.582 35.4727C214.582 35.543 214.57 35.6426 214.547 35.7715C214.523 35.9004 214.477 35.9766 214.406 36H205.23C205.16 35.9766 205.113 35.9004 205.09 35.7715C205.066 35.6426 205.055 35.543 205.055 35.4727C205.055 35.4141 205.072 35.3203 205.107 35.1914C205.143 35.0625 205.184 34.9863 205.23 34.9629C205.383 34.8926 205.6 34.8398 205.881 34.8047C206.162 34.7578 206.443 34.6758 206.725 34.5586C207.006 34.4297 207.252 34.2363 207.463 33.9785C207.674 33.709 207.779 33.3164 207.779 32.8008V12.3047C207.779 12.0234 207.703 11.8066 207.551 11.6543C207.398 11.4902 207.205 11.3672 206.971 11.2852C206.736 11.2031 206.484 11.1387 206.215 11.0918C205.945 11.0332 205.688 10.9688 205.441 10.8984C205.289 10.8398 205.213 10.6758 205.213 10.4062C205.213 10.3477 205.23 10.2715 205.266 10.1777C205.301 10.0723 205.371 9.99023 205.477 9.93164L211.295 7.18945C211.342 7.16602 211.395 7.14258 211.453 7.11914C211.512 7.0957 211.576 7.08398 211.646 7.08398C211.74 7.08398 211.799 7.11914 211.822 7.18945C211.846 7.24805 211.857 7.35352 211.857 7.50586V32.8008C211.857 33.3164 211.963 33.709 212.174 33.9785C212.385 34.2363 212.631 34.4297 212.912 34.5586C213.193 34.6758 213.475 34.7578 213.756 34.8047C214.037 34.8398 214.254 34.8926 214.406 34.9629C214.453 34.9863 214.494 35.0625 214.529 35.1914C214.564 35.3203 214.582 35.4141 214.582 35.4727ZM216.445 28.8809C216.445 27.5098 216.639 26.25 217.025 25.1016C217.412 23.9414 217.969 22.9395 218.695 22.0957C219.422 21.252 220.307 20.5957 221.35 20.127C222.404 19.6582 223.6 19.4238 224.936 19.4238C225.334 19.4238 225.691 19.4531 226.008 19.5117C226.324 19.5586 226.611 19.6289 226.869 19.7227C227.139 19.8047 227.385 19.9102 227.607 20.0391C227.842 20.1562 228.076 20.2852 228.311 20.4258C228.58 20.5664 228.885 20.8184 229.225 21.1816C229.576 21.5449 229.904 21.9668 230.209 22.4473C230.514 22.9277 230.771 23.4434 230.982 23.9941C231.193 24.5332 231.299 25.0547 231.299 25.5586C231.299 25.7227 231.264 25.9043 231.193 26.1035C231.135 26.291 231.029 26.3848 230.877 26.3848H220.506C220.389 26.3848 220.307 26.4902 220.26 26.7012C220.225 26.9121 220.207 27.1699 220.207 27.4746C220.207 28.5059 220.354 29.4258 220.646 30.2344C220.951 31.0312 221.355 31.7109 221.859 32.2734C222.363 32.8242 222.943 33.2461 223.6 33.5391C224.256 33.8203 224.947 33.9609 225.674 33.9609C226.131 33.9609 226.57 33.9023 226.992 33.7852C227.414 33.6562 227.818 33.4922 228.205 33.293C228.592 33.0938 228.955 32.8711 229.295 32.625C229.635 32.3789 229.957 32.1328 230.262 31.8867C230.332 31.8633 230.379 31.8516 230.402 31.8516C230.438 31.8516 230.484 31.8809 230.543 31.9395C230.648 32.0332 230.754 32.1445 230.859 32.2734C230.965 32.3906 231.047 32.4902 231.105 32.5723C231.141 32.6074 231.158 32.6426 231.158 32.6777C231.158 32.7129 231.135 32.7539 231.088 32.8008C230.701 33.2578 230.227 33.709 229.664 34.1543C229.102 34.5879 228.498 34.9805 227.854 35.332C227.221 35.6719 226.57 35.9473 225.902 36.1582C225.234 36.3691 224.602 36.4746 224.004 36.4746C222.797 36.4746 221.725 36.2578 220.787 35.8242C219.85 35.3789 219.059 34.7988 218.414 34.084C217.77 33.3691 217.277 32.5605 216.938 31.6582C216.609 30.7441 216.445 29.8184 216.445 28.8809ZM226.764 25.0312C227.068 25.0312 227.221 24.8965 227.221 24.627C227.221 24.1699 227.145 23.7422 226.992 23.3438C226.852 22.9336 226.646 22.5762 226.377 22.2715C226.107 21.9551 225.779 21.709 225.393 21.5332C225.018 21.3574 224.596 21.2695 224.127 21.2695C223.564 21.2695 223.072 21.3926 222.65 21.6387C222.229 21.873 221.871 22.1602 221.578 22.5C221.285 22.8398 221.062 23.1914 220.91 23.5547C220.77 23.918 220.699 24.2285 220.699 24.4863C220.699 24.6855 220.729 24.8262 220.787 24.9082C220.846 24.9902 220.922 25.0312 221.016 25.0312H226.764Z" fill="white"/>
<path d="M115.932 72C115.861 72 115.82 71.9824 115.809 71.9473C115.797 71.9004 115.791 71.8711 115.791 71.8594V71.1035C115.791 71.0918 115.797 71.0684 115.809 71.0332C115.82 70.9863 115.861 70.9629 115.932 70.9629H116.318C116.564 70.9629 116.869 70.9512 117.232 70.9277C117.596 70.8926 117.947 70.8105 118.287 70.6816C118.627 70.541 118.914 70.3359 119.148 70.0664C119.395 69.7852 119.518 69.4043 119.518 68.9238V50.1855C119.518 49.8223 119.436 49.5176 119.271 49.2715C119.119 49.0137 118.92 48.8086 118.674 48.6562C118.439 48.4922 118.176 48.375 117.883 48.3047C117.59 48.2344 117.314 48.1992 117.057 48.1992H115.932C115.861 48.1992 115.82 48.1816 115.809 48.1465C115.797 48.0996 115.791 48.0703 115.791 48.0586V47.3027C115.791 47.291 115.797 47.2676 115.809 47.2324C115.82 47.1855 115.861 47.1621 115.932 47.1621H116.318L123.543 47.0391C124.223 47.0273 124.955 47.0215 125.74 47.0215C126.537 47.0098 127.275 47.0039 127.955 47.0039C128.693 47.0039 129.355 47.0156 129.941 47.0391C130.527 47.0508 131.09 47.0859 131.629 47.1445C132.168 47.1914 132.713 47.2559 133.264 47.3379C133.814 47.4199 134.43 47.5312 135.109 47.6719C136.41 47.9414 137.617 48.4395 138.73 49.166C139.855 49.8926 140.822 50.7715 141.631 51.8027C142.451 52.834 143.09 53.9766 143.547 55.2305C144.016 56.4844 144.25 57.7676 144.25 59.0801C144.25 60.3457 144.074 61.5469 143.723 62.6836C143.371 63.8086 142.879 64.8516 142.246 65.8125C141.625 66.7617 140.881 67.623 140.014 68.3965C139.158 69.1582 138.215 69.8086 137.184 70.3477C136.152 70.875 135.057 71.2852 133.896 71.5781C132.736 71.8594 131.547 72 130.328 72H116.441H115.932ZM124.527 69.2754C124.527 69.6152 124.633 69.8789 124.844 70.0664C125.066 70.2539 125.354 70.3945 125.705 70.4883C126.068 70.5703 126.49 70.6172 126.971 70.6289C127.451 70.6406 127.955 70.6465 128.482 70.6465C131.963 70.6465 134.57 69.6855 136.305 67.7637C138.051 65.8418 138.924 63.041 138.924 59.3613C138.924 57.7441 138.725 56.2617 138.326 54.9141C137.939 53.5664 137.342 52.4062 136.533 51.4336C135.736 50.4609 134.729 49.7051 133.51 49.166C132.303 48.627 130.873 48.3574 129.221 48.3574H124.967C124.791 48.3574 124.674 48.3984 124.615 48.4805C124.557 48.5508 124.527 48.668 124.527 48.832V69.1875V69.2754ZM147.062 64.8809C147.062 63.5098 147.256 62.25 147.643 61.1016C148.029 59.9414 148.586 58.9395 149.312 58.0957C150.039 57.252 150.924 56.5957 151.967 56.127C153.021 55.6582 154.217 55.4238 155.553 55.4238C155.951 55.4238 156.309 55.4531 156.625 55.5117C156.941 55.5586 157.229 55.6289 157.486 55.7227C157.756 55.8047 158.002 55.9102 158.225 56.0391C158.459 56.1562 158.693 56.2852 158.928 56.4258C159.197 56.5664 159.502 56.8184 159.842 57.1816C160.193 57.5449 160.521 57.9668 160.826 58.4473C161.131 58.9277 161.389 59.4434 161.6 59.9941C161.811 60.5332 161.916 61.0547 161.916 61.5586C161.916 61.7227 161.881 61.9043 161.811 62.1035C161.752 62.291 161.646 62.3848 161.494 62.3848H151.123C151.006 62.3848 150.924 62.4902 150.877 62.7012C150.842 62.9121 150.824 63.1699 150.824 63.4746C150.824 64.5059 150.971 65.4258 151.264 66.2344C151.568 67.0312 151.973 67.7109 152.477 68.2734C152.98 68.8242 153.561 69.2461 154.217 69.5391C154.873 69.8203 155.564 69.9609 156.291 69.9609C156.748 69.9609 157.188 69.9023 157.609 69.7852C158.031 69.6562 158.436 69.4922 158.822 69.293C159.209 69.0938 159.572 68.8711 159.912 68.625C160.252 68.3789 160.574 68.1328 160.879 67.8867C160.949 67.8633 160.996 67.8516 161.02 67.8516C161.055 67.8516 161.102 67.8809 161.16 67.9395C161.266 68.0332 161.371 68.1445 161.477 68.2734C161.582 68.3906 161.664 68.4902 161.723 68.5723C161.758 68.6074 161.775 68.6426 161.775 68.6777C161.775 68.7129 161.752 68.7539 161.705 68.8008C161.318 69.2578 160.844 69.709 160.281 70.1543C159.719 70.5879 159.115 70.9805 158.471 71.332C157.838 71.6719 157.188 71.9473 156.52 72.1582C155.852 72.3691 155.219 72.4746 154.621 72.4746C153.414 72.4746 152.342 72.2578 151.404 71.8242C150.467 71.3789 149.676 70.7988 149.031 70.084C148.387 69.3691 147.895 68.5605 147.555 67.6582C147.227 66.7441 147.062 65.8184 147.062 64.8809ZM157.381 61.0312C157.686 61.0312 157.838 60.8965 157.838 60.627C157.838 60.1699 157.762 59.7422 157.609 59.3438C157.469 58.9336 157.264 58.5762 156.994 58.2715C156.725 57.9551 156.396 57.709 156.01 57.5332C155.635 57.3574 155.213 57.2695 154.744 57.2695C154.182 57.2695 153.689 57.3926 153.268 57.6387C152.846 57.873 152.488 58.1602 152.195 58.5C151.902 58.8398 151.68 59.1914 151.527 59.5547C151.387 59.918 151.316 60.2285 151.316 60.4863C151.316 60.6855 151.346 60.8262 151.404 60.9082C151.463 60.9902 151.539 61.0312 151.633 61.0312H157.381ZM167.119 71.8945C167.014 71.8945 166.92 71.9238 166.838 71.9824C166.756 72.041 166.674 72.1055 166.592 72.1758C166.521 72.2578 166.451 72.3281 166.381 72.3867C166.311 72.4453 166.229 72.4746 166.135 72.4746H165.502C165.479 72.4746 165.443 72.3047 165.396 71.9648C165.35 71.625 165.297 71.2207 165.238 70.752C165.191 70.2715 165.15 69.7793 165.115 69.2754C165.08 68.7598 165.062 68.332 165.062 67.9922C165.062 67.8047 165.127 67.6875 165.256 67.6406C165.396 67.582 165.543 67.5527 165.695 67.5527C165.777 67.5527 165.865 67.582 165.959 67.6406C166.064 67.6992 166.158 67.7754 166.24 67.8691C166.334 67.9512 166.416 68.0391 166.486 68.1328C166.557 68.2266 166.609 68.3086 166.645 68.3789C166.844 68.8125 167.043 69.2051 167.242 69.5566C167.441 69.9082 167.67 70.207 167.928 70.4531C168.186 70.6992 168.49 70.8926 168.842 71.0332C169.193 71.1621 169.615 71.2266 170.107 71.2266C170.482 71.2266 170.787 71.1621 171.021 71.0332C171.256 70.9043 171.438 70.7344 171.566 70.5234C171.695 70.3125 171.777 70.0723 171.812 69.8027C171.859 69.5332 171.883 69.252 171.883 68.959C171.883 68.373 171.707 67.8809 171.355 67.4824C171.004 67.0723 170.564 66.6914 170.037 66.3398C169.521 65.9883 168.953 65.6309 168.332 65.2676C167.723 64.9043 167.154 64.4824 166.627 64.002C166.111 63.5215 165.678 62.9531 165.326 62.2969C164.975 61.6289 164.799 60.8086 164.799 59.8359C164.799 59.2734 164.975 58.7285 165.326 58.2012C165.678 57.6621 166.135 57.1875 166.697 56.7773C167.26 56.3672 167.887 56.0391 168.578 55.793C169.281 55.5469 169.979 55.4238 170.67 55.4238C171.033 55.4238 171.396 55.459 171.76 55.5293C172.135 55.5879 172.475 55.6582 172.779 55.7402C173.096 55.8223 173.359 55.9043 173.57 55.9863C173.793 56.0684 173.934 56.127 173.992 56.1621C174.074 56.2207 174.139 56.3145 174.186 56.4434C174.244 56.5605 174.279 56.7539 174.291 57.0234C174.314 57.293 174.326 57.6562 174.326 58.1133C174.338 58.5586 174.344 59.1445 174.344 59.8711C174.344 60.0703 174.268 60.2168 174.115 60.3105C173.975 60.3926 173.834 60.4336 173.693 60.4336C173.564 60.4336 173.436 60.4102 173.307 60.3633C173.189 60.3164 173.113 60.2402 173.078 60.1348C172.938 59.7715 172.779 59.4082 172.604 59.0449C172.428 58.6699 172.223 58.3359 171.988 58.043C171.766 57.7383 171.502 57.498 171.197 57.3223C170.893 57.1348 170.541 57.041 170.143 57.041C169.908 57.041 169.674 57.0703 169.439 57.1289C169.205 57.1875 168.994 57.3047 168.807 57.4805C168.619 57.6445 168.467 57.873 168.35 58.166C168.244 58.459 168.191 58.834 168.191 59.291C168.191 59.6895 168.373 60.0586 168.736 60.3984C169.111 60.7383 169.574 61.084 170.125 61.4355C170.676 61.7754 171.273 62.1445 171.918 62.543C172.574 62.9414 173.178 63.3984 173.729 63.9141C174.279 64.4297 174.736 65.0273 175.1 65.707C175.475 66.375 175.662 67.166 175.662 68.0801C175.662 68.7598 175.486 69.375 175.135 69.9258C174.783 70.4648 174.332 70.9219 173.781 71.2969C173.23 71.6719 172.615 71.959 171.936 72.1582C171.268 72.3691 170.611 72.4746 169.967 72.4746C169.639 72.4746 169.311 72.4453 168.982 72.3867C168.654 72.3281 168.355 72.2578 168.086 72.1758C167.816 72.1055 167.594 72.041 167.418 71.9824C167.242 71.9238 167.143 71.8945 167.119 71.8945ZM178.211 72C178.141 71.9766 178.094 71.9004 178.07 71.7715C178.047 71.6309 178.035 71.5254 178.035 71.4551C178.035 71.3965 178.053 71.3027 178.088 71.1738C178.123 71.0449 178.164 70.9688 178.211 70.9453C178.363 70.875 178.58 70.8223 178.861 70.7871C179.143 70.7402 179.424 70.6582 179.705 70.541C179.986 70.4121 180.232 70.2188 180.443 69.9609C180.654 69.6914 180.76 69.2988 180.76 68.7832V60.3457C180.76 60.0645 180.684 59.8477 180.531 59.6953C180.379 59.5312 180.186 59.4082 179.951 59.3262C179.717 59.2441 179.465 59.1797 179.195 59.1328C178.926 59.0742 178.668 59.0098 178.422 58.9395C178.352 58.916 178.293 58.8867 178.246 58.8516C178.211 58.8047 178.193 58.7168 178.193 58.5879C178.193 58.5293 178.211 58.4707 178.246 58.4121C178.281 58.3535 178.352 58.2949 178.457 58.2363L184.275 55.4941C184.322 55.4707 184.369 55.4473 184.416 55.4238C184.475 55.4004 184.516 55.3887 184.539 55.3887C184.738 55.3887 184.838 55.5293 184.838 55.8105V68.7832C184.838 69.2988 184.943 69.6914 185.154 69.9609C185.365 70.2188 185.611 70.4121 185.893 70.541C186.174 70.6582 186.455 70.7402 186.736 70.7871C187.018 70.8223 187.234 70.875 187.387 70.9453C187.434 70.9688 187.475 71.0449 187.51 71.1738C187.545 71.3027 187.562 71.3965 187.562 71.4551C187.562 71.5254 187.551 71.6309 187.527 71.7715C187.504 71.9004 187.457 71.9766 187.387 72H178.211ZM180.004 49.0254C180.004 48.2754 180.227 47.6777 180.672 47.2324C181.117 46.7871 181.715 46.5645 182.465 46.5645C183.215 46.5645 183.812 46.7871 184.258 47.2324C184.703 47.6777 184.926 48.2754 184.926 49.0254C184.926 49.7754 184.703 50.373 184.258 50.8184C183.812 51.252 183.215 51.4688 182.465 51.4688C181.715 51.4688 181.117 51.252 180.672 50.8184C180.227 50.373 180.004 49.7754 180.004 49.0254ZM198.672 55.4238C199.797 55.4238 200.805 55.5703 201.695 55.8633C202.586 56.1562 203.33 56.584 203.928 57.1465C204.666 57.123 205.369 57.082 206.037 57.0234C206.717 56.9648 207.443 56.9355 208.217 56.9355C208.486 56.9355 208.703 56.9473 208.867 56.9707C209.043 56.9824 209.178 57.0117 209.271 57.0586C209.365 57.0938 209.436 57.1465 209.482 57.2168C209.529 57.2754 209.564 57.3516 209.588 57.4453C209.67 57.7383 209.729 58.002 209.764 58.2363C209.799 58.4707 209.816 58.7109 209.816 58.957C209.816 59.1562 209.74 59.291 209.588 59.3613C209.447 59.4199 209.154 59.4492 208.709 59.4492H205.492C205.656 59.7188 205.814 60.0352 205.967 60.3984C206.131 60.7617 206.213 61.2246 206.213 61.7871C206.213 62.5957 206.031 63.3867 205.668 64.1602C205.305 64.9219 204.771 65.5957 204.068 66.1816C203.365 66.7676 202.504 67.2422 201.484 67.6055C200.477 67.957 199.322 68.1328 198.021 68.1328C197.623 68.1328 197.301 68.1211 197.055 68.0977C196.809 68.0625 196.551 68.0098 196.281 67.9395C196.117 68.0801 195.912 68.209 195.666 68.3262C195.42 68.4316 195.18 68.5547 194.945 68.6953C194.711 68.8359 194.512 69 194.348 69.1875C194.184 69.3633 194.102 69.5918 194.102 69.873C194.102 70.3652 194.529 70.7227 195.385 70.9453C196.252 71.1562 197.646 71.2676 199.568 71.2793C201.033 71.291 202.363 71.332 203.559 71.4023C204.766 71.4727 205.797 71.6602 206.652 71.9648C207.508 72.2578 208.17 72.7148 208.639 73.3359C209.107 73.9688 209.342 74.8477 209.342 75.9727C209.342 76.4414 209.23 76.9453 209.008 77.4844C208.785 78.0352 208.445 78.5801 207.988 79.1191C207.543 79.6582 206.98 80.1738 206.301 80.666C205.621 81.1699 204.818 81.6094 203.893 81.9844C202.979 82.3711 201.941 82.6758 200.781 82.8984C199.621 83.1328 198.344 83.25 196.949 83.25C195.719 83.25 194.646 83.127 193.732 82.8809C192.818 82.6465 192.062 82.3301 191.465 81.9316C190.867 81.5332 190.416 81.0762 190.111 80.5605C189.818 80.0566 189.672 79.5352 189.672 78.9961C189.672 78.5859 189.754 78.2168 189.918 77.8887C190.082 77.5605 190.299 77.2559 190.568 76.9746C190.838 76.7051 191.137 76.4473 191.465 76.2012C191.805 75.9668 192.145 75.7207 192.484 75.4629C192.824 75.2168 193.152 74.9531 193.469 74.6719C193.785 74.4023 194.061 74.0918 194.295 73.7402C193.674 73.6582 193.105 73.5117 192.59 73.3008C192.086 73.0898 191.652 72.8438 191.289 72.5625C190.938 72.2812 190.662 71.9766 190.463 71.6484C190.264 71.3086 190.164 70.9688 190.164 70.6289C190.164 70.3125 190.246 70.0371 190.41 69.8027C190.586 69.5684 190.809 69.3633 191.078 69.1875C191.359 69 191.676 68.8301 192.027 68.6777C192.379 68.5254 192.742 68.3789 193.117 68.2383C193.352 68.1445 193.598 68.0449 193.855 67.9395C194.125 67.8223 194.4 67.6641 194.682 67.4648C193.287 66.9023 192.232 66.1699 191.518 65.2676C190.803 64.3652 190.445 63.3223 190.445 62.1387C190.445 61.2012 190.656 60.3223 191.078 59.502C191.5 58.6816 192.08 57.9727 192.818 57.375C193.557 56.7656 194.424 56.291 195.42 55.9512C196.428 55.5996 197.512 55.4238 198.672 55.4238ZM193.68 77.5547C193.68 78.0469 193.826 78.5391 194.119 79.0312C194.424 79.5352 194.828 79.9863 195.332 80.3848C195.848 80.7832 196.451 81.1055 197.143 81.3516C197.834 81.6094 198.572 81.7383 199.357 81.7383C200.178 81.7383 200.975 81.5977 201.748 81.3164C202.521 81.0469 203.207 80.6836 203.805 80.2266C204.402 79.7695 204.883 79.2363 205.246 78.627C205.609 78.0293 205.791 77.4023 205.791 76.7461C205.791 76.3594 205.727 76.0195 205.598 75.7266C205.48 75.4336 205.316 75.1875 205.105 74.9883C204.895 74.7891 204.648 74.6309 204.367 74.5137C204.086 74.3965 203.793 74.3262 203.488 74.3027C203.242 74.2793 202.832 74.2559 202.258 74.2324C201.684 74.2207 201.039 74.2031 200.324 74.1797C199.891 74.168 199.463 74.1562 199.041 74.1445C198.619 74.1445 198.227 74.1387 197.863 74.127C197.512 74.1152 197.189 74.1035 196.896 74.0918C196.615 74.0801 196.393 74.0625 196.229 74.0391C196.006 74.2969 195.748 74.5371 195.455 74.7598C195.162 74.9941 194.881 75.2402 194.611 75.498C194.354 75.7676 194.131 76.0664 193.943 76.3945C193.768 76.7227 193.68 77.1094 193.68 77.5547ZM201.994 62.1738C201.994 61.2715 201.9 60.4688 201.713 59.7656C201.525 59.0508 201.256 58.4531 200.904 57.9727C200.564 57.4805 200.16 57.1113 199.691 56.8652C199.223 56.6074 198.707 56.4785 198.145 56.4785C197.805 56.4785 197.43 56.5488 197.02 56.6895C196.621 56.8184 196.246 57.0645 195.895 57.4277C195.543 57.7793 195.25 58.2656 195.016 58.8867C194.781 59.5078 194.664 60.3047 194.664 61.2773C194.664 61.8984 194.734 62.5488 194.875 63.2285C195.016 63.9082 195.238 64.5352 195.543 65.1094C195.859 65.6836 196.264 66.1582 196.756 66.5332C197.248 66.8965 197.846 67.0781 198.549 67.0781C199.076 67.0781 199.551 66.9609 199.973 66.7266C200.395 66.4805 200.752 66.1465 201.045 65.7246C201.35 65.291 201.584 64.7754 201.748 64.1777C201.912 63.5684 201.994 62.9004 201.994 62.1738ZM217.111 54.9492C217.158 54.9258 217.205 54.9023 217.252 54.8789C217.311 54.8555 217.352 54.8438 217.375 54.8438C217.574 54.8438 217.674 54.9844 217.674 55.2656V58.0078C217.709 58.125 217.756 58.1836 217.814 58.1836C217.873 58.1836 217.92 58.1836 217.955 58.1836C217.99 58.1719 218.037 58.1484 218.096 58.1133C218.846 57.7266 219.479 57.4043 219.994 57.1465C220.521 56.877 220.973 56.6543 221.348 56.4785C221.734 56.291 222.074 56.1504 222.367 56.0566C222.672 55.9512 222.977 55.875 223.281 55.8281C223.586 55.7695 223.92 55.7344 224.283 55.7227C224.646 55.7109 225.092 55.7051 225.619 55.7051C226.193 55.7051 226.691 55.8281 227.113 56.0742C227.535 56.3203 227.887 56.6484 228.168 57.0586C228.461 57.457 228.695 57.9199 228.871 58.4473C229.059 58.9629 229.199 59.4961 229.293 60.0469C229.387 60.5859 229.451 61.125 229.486 61.6641C229.521 62.1914 229.539 62.6719 229.539 63.1055C229.539 63.5156 229.527 63.8965 229.504 64.248C229.492 64.5996 229.475 64.9863 229.451 65.4082C229.439 65.8184 229.422 66.2871 229.398 66.8145C229.387 67.3418 229.381 67.9805 229.381 68.7305C229.381 69.082 229.445 69.375 229.574 69.6094C229.703 69.8438 229.867 70.0371 230.066 70.1895C230.277 70.3418 230.506 70.459 230.752 70.541C230.998 70.6113 231.238 70.6699 231.473 70.7168C231.707 70.7637 231.918 70.8047 232.105 70.8398C232.305 70.8633 232.457 70.8984 232.562 70.9453C232.609 70.9688 232.65 71.0449 232.686 71.1738C232.721 71.3027 232.738 71.3965 232.738 71.4551C232.738 71.5254 232.727 71.6309 232.703 71.7715C232.68 71.9004 232.633 71.9766 232.562 72H222.754C222.684 71.9766 222.637 71.9004 222.613 71.7715C222.59 71.6309 222.578 71.5254 222.578 71.4551C222.578 71.3965 222.596 71.3027 222.631 71.1738C222.666 71.0449 222.707 70.9688 222.754 70.9453C222.906 70.875 223.105 70.8223 223.352 70.7871C223.609 70.7402 223.867 70.6465 224.125 70.5059C224.395 70.3652 224.635 70.1543 224.846 69.873C225.068 69.5801 225.215 69.1523 225.285 68.5898C225.309 68.4141 225.326 68.25 225.338 68.0977C225.361 67.9453 225.379 67.793 225.391 67.6406C225.402 67.4766 225.408 67.3008 225.408 67.1133C225.42 66.9258 225.426 66.709 225.426 66.4629C225.426 65.9355 225.42 65.373 225.408 64.7754C225.396 64.1777 225.391 63.5098 225.391 62.7715C225.391 62.1973 225.361 61.6289 225.303 61.0664C225.256 60.5039 225.127 60 224.916 59.5547C224.717 59.1094 224.418 58.7461 224.02 58.4648C223.621 58.1836 223.07 58.043 222.367 58.043C222.121 58.043 221.898 58.0605 221.699 58.0957C221.512 58.1191 221.277 58.1836 220.996 58.2891C220.727 58.3945 220.369 58.5527 219.924 58.7637C219.479 58.9746 218.881 59.2617 218.131 59.625C218.037 59.6836 217.938 59.7539 217.832 59.8359C217.738 59.9062 217.686 60 217.674 60.1172V68.7305C217.674 69.2578 217.779 69.6621 217.99 69.9434C218.201 70.2129 218.447 70.4121 218.729 70.541C219.01 70.6582 219.291 70.7402 219.572 70.7871C219.854 70.8223 220.07 70.875 220.223 70.9453C220.27 70.9688 220.311 71.0449 220.346 71.1738C220.381 71.3027 220.398 71.3965 220.398 71.4551C220.398 71.5254 220.387 71.6309 220.363 71.7715C220.34 71.9004 220.293 71.9766 220.223 72H211.047C210.977 71.9766 210.93 71.9004 210.906 71.7715C210.883 71.6309 210.871 71.5254 210.871 71.4551C210.871 71.3965 210.889 71.3027 210.924 71.1738C210.959 71.0449 211 70.9688 211.047 70.9453C211.199 70.875 211.416 70.8223 211.697 70.7871C211.979 70.7402 212.26 70.6582 212.541 70.541C212.822 70.4121 213.068 70.2129 213.279 69.9434C213.49 69.6621 213.596 69.2578 213.596 68.7305V59.8008C213.596 59.5195 213.52 59.3027 213.367 59.1504C213.215 58.9863 213.021 58.8633 212.787 58.7812C212.553 58.6992 212.301 58.6348 212.031 58.5879C211.762 58.5293 211.504 58.4648 211.258 58.3945C211.188 58.3711 211.129 58.3418 211.082 58.3066C211.047 58.2598 211.029 58.1719 211.029 58.043C211.029 57.9844 211.047 57.9258 211.082 57.8672C211.117 57.8086 211.188 57.75 211.293 57.6914L217.111 54.9492Z" fill="white"/>
</svg>
